<?xml version="1.0" encoding="UTF-8"?>
<svg version="1.1" xmlns="http://www.w3.org/2000/svg" width="922" height="295">
<path d="M0 0 C2.33235903 0.0214537 4.66162921 0.00004784 6.99389648 -0.02539062 C21.41020319 -0.0508905 35.78912528 2.26043693 48.89819336 8.52148438 C49.87143555 8.97523437 50.84467773 9.42898437 51.84741211 9.89648438 C57.51784005 12.62853497 62.81898967 15.60826163 67.98413086 19.20507812 C70.04640561 20.66252267 70.04640561 20.66252267 72.96069336 22.27148438 C73.60006836 22.68398438 74.23944336 23.09648438 74.89819336 23.52148438 C74.89819336 24.18148437 74.89819336 24.84148438 74.89819336 25.52148438 C76.21819336 25.85148437 77.53819336 26.18148437 78.89819336 26.52148438 C78.89819336 27.18148437 78.89819336 27.84148438 78.89819336 28.52148438 C79.62006836 28.72773437 80.34194336 28.93398438 81.08569336 29.14648438 C84.10660398 30.62337401 85.6198902 32.32917812 87.65991211 34.96289062 C88.99491553 36.71116262 88.99491553 36.71116262 91.21069336 38.77148438 C97.90650449 45.62301205 103.24180658 53.1762717 107.89819336 61.52148438 C108.48729492 62.5553125 109.07639648 63.58914062 109.68334961 64.65429688 C113.46785952 71.45195161 116.69953734 78.05484852 118.89819336 85.52148438 C119.1125 86.20098145 119.32680664 86.88047852 119.54760742 87.58056641 C128.62713995 117.17428611 126.32970543 151.64092144 112.89819336 179.52148438 C111.0326308 182.95375723 109.02409635 186.24628369 106.89819336 189.52148438 C106.41479492 190.33359375 105.93139648 191.14570313 105.43334961 191.98242188 C99.58475264 201.65567386 92.41118199 209.3705419 84.30957031 217.15527344 C83.06913969 218.35600857 81.85449919 219.58326683 80.64428711 220.81445312 C78.56411245 222.84809144 76.42162197 224.0635034 73.89819336 225.52148438 C72.62707661 226.41691551 71.35628422 227.31280717 70.08569336 228.20898438 C60.3524371 234.72490384 49.15375576 240.27245605 37.89819336 243.52148438 C37.29362305 243.70195312 36.68905273 243.88242187 36.06616211 244.06835938 C15.24461846 250.05202629 -9.42360291 250.23455052 -30.10180664 243.52148438 C-32.10180664 241.52148438 -32.10180664 241.52148438 -32.34231567 239.23092651 C-32.33787445 238.27606354 -32.33343323 237.32120056 -32.32885742 236.33740234 C-32.32870636 235.2564328 -32.3285553 234.17546326 -32.32839966 233.06173706 C-32.31807709 231.89087555 -32.30775452 230.72001404 -32.29711914 229.51367188 C-32.29428925 228.31791534 -32.29145935 227.12215881 -32.2885437 225.89016724 C-32.27731969 222.05883919 -32.25221095 218.22774216 -32.22680664 214.39648438 C-32.21677972 211.80403983 -32.20765337 209.21159163 -32.19946289 206.61914062 C-32.1773731 200.25317595 -32.1438737 193.88734666 -32.10180664 187.52148438 C-30.78180664 187.19148437 -29.46180664 186.86148438 -28.10180664 186.52148438 C-27.77180664 187.51148438 -27.44180664 188.50148437 -27.10180664 189.52148438 C-25.08672306 190.25472234 -25.08672306 190.25472234 -23.10180664 190.52148438 C-23.10180664 191.18148437 -23.10180664 191.84148437 -23.10180664 192.52148438 C-21.70961914 192.95460937 -21.70961914 192.95460937 -20.28930664 193.39648438 C-17.10180664 194.52148437 -17.10180664 194.52148437 -14.10180664 196.52148438 C-7.95938989 198.51190873 -1.76299015 198.87643841 4.64819336 198.83398438 C5.95590698 198.8277002 5.95590698 198.8277002 7.29003906 198.82128906 C17.86555404 198.63765585 27.5210237 196.46436533 36.89819336 191.52148438 C38.31745117 190.78091797 38.31745117 190.78091797 39.76538086 190.02539062 C52.17975093 183.18643103 60.53723331 174.46008561 67.89819336 162.52148438 C68.47698242 161.58691406 69.05577148 160.65234375 69.65209961 159.68945312 C79.55291851 141.94738416 79.36751077 122.12347055 74.60473633 102.94384766 C72.52509197 95.81384374 68.86578879 89.45149062 64.74194336 83.31054688 C62.89819336 80.52148438 62.89819336 80.52148438 61.89819336 77.77148438 C61.07826891 75.35673272 61.07826891 75.35673272 58.77319336 74.20898438 C58.15444336 73.98210937 57.53569336 73.75523438 56.89819336 73.52148438 C56.89819336 72.86148438 56.89819336 72.20148438 56.89819336 71.52148438 C55.57819336 70.86148438 54.25819336 70.20148438 52.89819336 69.52148438 C52.89819336 68.86148438 52.89819336 68.20148438 52.89819336 67.52148438 C52.30006836 67.41835937 51.70194336 67.31523438 51.08569336 67.20898438 C48.89819336 66.52148438 48.89819336 66.52148438 47.53491211 65.13476562 C45.67310676 63.29962097 43.82742372 62.2483101 41.52319336 61.02148438 C39.12284492 59.73469964 36.77396993 58.44372011 34.46459961 56.99804688 C26.94874601 52.67385713 18.49142912 50.81647605 9.89819336 50.52148438 C8.89014648 50.48152344 7.88209961 50.4415625 6.84350586 50.40039062 C-4.98631321 50.15925522 -15.24528753 51.84453289 -26.19946289 56.34570312 C-29.46665701 57.66929052 -32.69159724 58.64910523 -36.10180664 59.52148438 C-36.10180664 60.18148437 -36.10180664 60.84148437 -36.10180664 61.52148438 C-37.71899414 62.67773438 -37.71899414 62.67773438 -39.97680664 64.02148438 C-45.87749311 67.80541665 -52.91055302 73.13897714 -56.10180664 79.52148438 C-56.76180664 79.52148438 -57.42180664 79.52148438 -58.10180664 79.52148438 C-58.19977539 80.06546875 -58.29774414 80.60945313 -58.39868164 81.16992188 C-59.28831581 84.14525393 -60.76480145 86.47617565 -62.35180664 89.14648438 C-71.66873523 106.60133204 -71.72596235 123.64410901 -71.38522339 143.04211426 C-71.32882592 146.59366112 -71.30221784 150.1453895 -71.27563477 153.69726562 C-71.26762093 154.75873117 -71.26762093 154.75873117 -71.25944519 155.84164047 C-71.24876754 157.26728729 -71.23821323 158.69293503 -71.2277832 160.11858368 C-71.21124253 162.24023653 -71.19151157 164.36184024 -71.17114258 166.48345947 C-71.06215889 178.50360934 -71.24360869 190.50647738 -71.60180664 202.52148438 C-71.62617798 203.36640442 -71.65054932 204.21132446 -71.67565918 205.08184814 C-71.80587044 209.56215817 -71.94699903 214.04194496 -72.10180664 218.52148438 C-75.89741159 218.7462556 -76.7733181 218.78023792 -79.89868164 216.31835938 C-80.89863557 215.31806921 -81.8822592 214.3012737 -82.85180664 213.27148438 C-83.37548828 212.72862793 -83.89916992 212.18577148 -84.4387207 211.62646484 C-108.19063882 186.53406325 -119.01870637 154.42092222 -118.27758789 120.26367188 C-117.20090553 87.85751436 -104.99179971 59.1692573 -82.4206543 35.89160156 C-81.35017131 34.7795041 -80.30580064 33.64231357 -79.26977539 32.49804688 C-71.0636929 23.64794272 -59.88772515 16.75750566 -49.10180664 11.52148438 C-48.52237305 11.2367627 -47.94293945 10.95204102 -47.34594727 10.65869141 C-45.39983579 9.71437358 -43.4414102 8.80164835 -41.47680664 7.89648438 C-40.28829102 7.34734375 -39.09977539 6.79820313 -37.87524414 6.23242188 C-25.52993626 1.43818277 -13.14869214 -0.1430252 0 0 Z " fill="#00907C" transform="translate(152.101806640625,29.478515625)"/>
<path d="M0 0 C1.43956055 -0.02416992 1.43956055 -0.02416992 2.90820312 -0.04882812 C12.14824901 -0.05505038 20.4143188 1.9945428 28.75 6 C29.67167969 6.43699219 30.59335937 6.87398438 31.54296875 7.32421875 C32.20941406 7.65035156 32.87585938 7.97648437 33.5625 8.3125 C33.5625 8.9725 33.5625 9.6325 33.5625 10.3125 C34.26503906 10.53679687 34.96757812 10.76109375 35.69140625 10.9921875 C39.18312627 12.59790365 41.73257726 14.83333276 44.5 17.4375 C45.02924072 17.9310498 45.55848145 18.42459961 46.10375977 18.93310547 C59.35896672 31.5242239 67.28667095 48.58720198 67.99609375 66.92578125 C68.01942383 69.15873267 68.02031595 71.39201912 68 73.625 C67.98864014 75.39049194 67.98864014 75.39049194 67.97705078 77.19165039 C67.70882945 91.4279378 64.53595213 102.80013446 57.5625 115.3125 C56.88870332 116.64224443 56.21914192 117.97420123 55.5625 119.3125 C54.9025 119.3125 54.2425 119.3125 53.5625 119.3125 C53.35625 119.993125 53.15 120.67375 52.9375 121.375 C47.31732061 133.38174688 33.42804807 140.75814128 21.5625 145.3125 C2.81715457 150.80414882 -16.75754479 149.13406294 -33.95703125 139.77734375 C-34.77558594 139.29394531 -35.59414063 138.81054688 -36.4375 138.3125 C-37.80455078 137.54099609 -37.80455078 137.54099609 -39.19921875 136.75390625 C-41.4375 135.3125 -41.4375 135.3125 -42.4375 133.3125 C-43.35402344 132.86777344 -43.35402344 132.86777344 -44.2890625 132.4140625 C-48.23046722 130.39319681 -50.67367816 126.6951776 -53.4375 123.3125 C-53.96859375 122.67957031 -54.4996875 122.04664063 -55.046875 121.39453125 C-64.78807619 109.21802977 -68.98406395 93.67018172 -69.4375 78.3125 C-69.47746094 77.48363281 -69.51742188 76.65476562 -69.55859375 75.80078125 C-70.0981438 56.59914715 -64.83989177 39.61721283 -53.4375 24.3125 C-52.4475 23.9825 -51.4575 23.6525 -50.4375 23.3125 C-49.22867904 21.31233534 -49.22867904 21.31233534 -48.4375 19.3125 C-47.7775 19.3125 -47.1175 19.3125 -46.4375 19.3125 C-45.7775 17.9925 -45.1175 16.6725 -44.4375 15.3125 C-43.4475 15.3125 -42.4575 15.3125 -41.4375 15.3125 C-41.10298828 14.41724609 -41.10298828 14.41724609 -40.76171875 13.50390625 C-37.11524954 7.46948375 -25.89310453 3.46486457 -19.31640625 1.76391602 C-12.83003699 0.37331407 -6.62329882 -0.0221515 0 0 Z M-24.4375 33.3125 C-24.4375 33.9725 -24.4375 34.6325 -24.4375 35.3125 C-24.994375 35.35375 -25.55125 35.395 -26.125 35.4375 C-31.6157553 37.51508309 -35.00720368 44.23889335 -37.4375 49.3125 C-37.81261719 50.04984375 -38.18773437 50.7871875 -38.57421875 51.546875 C-44.108301 64.67332974 -43.74399969 83.47668457 -38.70703125 96.71875 C-35.59553762 103.07577082 -31.81949517 108.67800416 -26.4375 113.3125 C-25.7775 113.3125 -25.1175 113.3125 -24.4375 113.3125 C-24.4375 113.9725 -24.4375 114.6325 -24.4375 115.3125 C-23.06932703 116.13644416 -21.69255089 116.94610897 -20.3125 117.75 C-19.54679687 118.20246094 -18.78109375 118.65492188 -17.9921875 119.12109375 C-12.60414297 121.63386681 -6.89464451 121.49481126 -1.0625 121.5 C-0.34578125 121.51224609 0.3709375 121.52449219 1.109375 121.53710938 C11.58800589 121.56548112 18.64661596 118.17529932 26.5625 111.3125 C36.78941771 100.79777035 40.41308534 87.85784734 40.875 73.5 C40.56623915 58.79526435 36.77646206 47.15261565 26.8046875 36.390625 C17.76082097 28.0085048 8.21469631 25.927274 -3.84765625 26.12890625 C-11.82005685 26.53663512 -17.66531389 29.20529454 -24.4375 33.3125 Z " fill="#00907C" transform="translate(393.4375,77.6875)"/>
<path d="M0 0 C1.19923096 0.02618408 2.39846191 0.05236816 3.6340332 0.0793457 C4.93276367 0.09545898 6.23149414 0.11157227 7.56958008 0.12817383 C8.94134144 0.16995087 10.31308623 0.21227561 11.68481445 0.25512695 C13.06823827 0.2802095 14.45170523 0.30302278 15.83520508 0.32348633 C19.22366209 0.38251868 22.6099483 0.46482613 25.99731445 0.56762695 C28.86307576 7.31929829 31.6306798 14.06220664 33.99731445 21.00512695 C36.95112891 29.51326156 39.93918805 38.03011411 43.62231445 46.25512695 C44.75064224 48.97337117 45.61920307 51.56256035 46.43481445 54.38012695 C47.38612179 57.65359991 48.44233395 60.79401442 49.74731445 63.94262695 C52.21977701 69.92408444 54.28154155 76.04545567 56.35961914 82.17260742 C58.04496759 87.07779775 59.91628299 91.81477786 62.09887695 96.52099609 C63.34167266 99.3520712 64.2768128 102.25490017 65.2199707 105.1965332 C66.06731178 107.78113638 66.99384799 110.32816733 67.93481445 112.88012695 C69.36536745 116.77471231 70.70807099 120.68655872 71.99731445 124.63012695 C73.5474261 129.35427673 75.31103164 133.93706451 77.26293945 138.5090332 C77.99731445 140.56762695 77.99731445 140.56762695 77.99731445 143.56762695 C68.75731445 143.56762695 59.51731445 143.56762695 49.99731445 143.56762695 C44.41959781 130.18110701 44.41959781 130.18110701 42.37231445 124.25512695 C40.74939103 119.56607639 38.96241439 115.15286014 36.99731445 110.56762695 C19.17731445 110.23762695 1.35731445 109.90762695 -17.00268555 109.56762695 C-17.33268555 111.87762695 -17.66268555 114.18762695 -18.00268555 116.56762695 C-18.71118164 118.87182617 -18.71118164 118.87182617 -19.52612305 120.87231445 C-19.82518555 121.62125977 -20.12424805 122.37020508 -20.43237305 123.1418457 C-20.74432617 123.90110352 -21.0562793 124.66036133 -21.37768555 125.44262695 C-21.9919029 126.95995202 -22.60388606 128.47818342 -23.21362305 129.99731445 C-23.48480957 130.65973145 -23.75599609 131.32214844 -24.03540039 132.00463867 C-25.47422336 135.81704744 -26.71409437 139.70185343 -28.00268555 143.56762695 C-36.25268555 143.56762695 -44.50268555 143.56762695 -53.00268555 143.56762695 C-51.87933142 133.45743984 -51.87933142 133.45743984 -50.44018555 129.81762695 C-50.0844043 128.89208008 -49.72862305 127.9665332 -49.36206055 127.01293945 C-48.9134668 125.87598633 -48.46487305 124.7390332 -48.00268555 123.56762695 C-46.72343969 120.27917832 -45.45460996 116.98680111 -44.19018555 113.69262695 C-43.84342773 112.78939697 -43.49666992 111.88616699 -43.1394043 110.95556641 C-40.10114102 102.9696147 -37.38808309 94.89578977 -34.7253418 86.77856445 C-32.1986462 79.08736655 -29.50025131 71.45628655 -26.80053711 63.82446289 C-26.04978052 61.70084173 -25.30317035 59.57580619 -24.55737305 57.45043945 C-21.10626634 47.675748 -21.10626634 47.675748 -19.37768555 43.81762695 C-17.88212446 40.28266439 -16.8234895 36.73289056 -15.75268555 33.05200195 C-14.31679386 28.29561074 -12.51956434 23.73060424 -10.50268555 19.19262695 C-8.9766877 15.50479883 -7.87934934 11.84614799 -6.84643555 7.99731445 C-4.35513578 0.82329382 -4.35513578 0.82329382 0 0 Z M9.99731445 32.56762695 C9.80137695 33.16704102 9.60543945 33.76645508 9.40356445 34.3840332 C4.47724997 49.31161545 -0.58648544 64.2153992 -6.27563477 78.87133789 C-7.58029707 82.12498537 -7.58029707 82.12498537 -8.00268555 85.56762695 C4.20731445 85.56762695 16.41731445 85.56762695 28.99731445 85.56762695 C27.59165491 79.24215903 26.46761579 75.19991401 23.99731445 69.56762695 C23.52744693 68.09227384 23.08019433 66.60962106 22.6496582 65.12231445 C20.86825652 59.0904542 18.95410411 53.10716302 16.99731445 47.13012695 C16.65442383 46.05569336 16.3115332 44.98125977 15.95825195 43.87426758 C15.45165039 42.33222656 15.45165039 42.33222656 14.93481445 40.7590332 C14.63446289 39.83292236 14.33411133 38.90681152 14.0246582 37.95263672 C12.98754399 35.54494453 11.97469011 34.25336771 9.99731445 32.56762695 Z " fill="#008F7B" transform="translate(773.002685546875,79.432373046875)"/>
<path d="M0 0 C2.00391138 1.42262411 3.80140611 2.91511575 5.609375 4.578125 C6.28097656 5.18269531 6.95257812 5.78726563 7.64453125 6.41015625 C11.22470717 9.79103809 11.22470717 9.79103809 12.609375 11.578125 C12.609375 12.568125 12.609375 13.558125 12.609375 14.578125 C13.269375 14.578125 13.929375 14.578125 14.609375 14.578125 C15.59990047 17.07412803 16.57681557 19.57417297 17.546875 22.078125 C17.82466797 22.77421875 18.10246094 23.4703125 18.38867188 24.1875 C21.17709062 31.44410782 21.75114574 38.22561808 21.734375 46.015625 C21.73824219 47.83900391 21.73824219 47.83900391 21.7421875 49.69921875 C21.609375 52.578125 21.609375 52.578125 20.609375 53.578125 C18.43131781 53.67241842 16.2501622 53.69555038 14.07006836 53.69165039 C13.38717239 53.69179642 12.70427643 53.69194244 12.00068665 53.6920929 C9.73349886 53.69139376 7.46639226 53.6836014 5.19921875 53.67578125 C3.63123113 53.67391707 2.06324293 53.67249317 0.49525452 53.67149353 C-3.63939003 53.66766834 -7.77399966 53.65783806 -11.90863037 53.64678955 C-16.12462898 53.63657544 -20.34063322 53.63199591 -24.55664062 53.62695312 C-32.83465147 53.61621579 -41.1126339 53.59913936 -49.390625 53.578125 C-49.09081077 55.35111937 -48.78476824 57.12306135 -48.47607422 58.89453125 C-48.30631073 59.88138916 -48.13654724 60.86824707 -47.9616394 61.88500977 C-47.31646306 64.92790015 -46.35036585 67.06842767 -44.515625 69.578125 C-44.02320313 70.279375 -43.53078125 70.980625 -43.0234375 71.703125 C-39.17965833 76.1170341 -35.09295001 77.63132387 -29.390625 78.578125 C-23.99184793 78.87260375 -18.73875149 78.25725217 -13.390625 77.578125 C-13.390625 76.918125 -13.390625 76.258125 -13.390625 75.578125 C-11.96484375 74.24609375 -11.96484375 74.24609375 -10.078125 72.765625 C-7.57162376 70.73346165 -6.42606961 69.64901422 -4.953125 66.703125 C-3.390625 64.578125 -3.390625 64.578125 -0.078125 63.953125 C6.39194666 64.31729414 12.64474733 67.23248491 18.609375 69.578125 C17.82712757 73.9754188 16.43783241 77.52371945 14.609375 81.578125 C13.949375 81.578125 13.289375 81.578125 12.609375 81.578125 C12.47208984 82.46177734 12.47208984 82.46177734 12.33203125 83.36328125 C10.45115124 89.1279243 2.84217713 93.55705678 -2.23828125 96.51171875 C-14.61389105 102.64337297 -31.67857268 102.53815759 -44.77734375 98.62890625 C-49.33380262 96.79678751 -53.36359904 94.36950159 -57.390625 91.578125 C-58.298125 90.959375 -59.205625 90.340625 -60.140625 89.703125 C-69.42396826 80.93552303 -76.26764968 67.33773119 -76.95703125 54.5625 C-76.9845395 52.48455666 -76.98255452 50.40604201 -76.953125 48.328125 C-76.94289307 47.23491943 -76.93266113 46.14171387 -76.92211914 45.01538086 C-76.58517865 32.11141927 -73.47346566 20.30156903 -64.390625 10.578125 C-63.730625 10.578125 -63.070625 10.578125 -62.390625 10.578125 C-62.3184375 9.9903125 -62.24625 9.4025 -62.171875 8.796875 C-60.36293945 3.65949803 -53.58143707 0.72838982 -48.97265625 -1.69140625 C-33.13044446 -8.97173421 -15.18031673 -9.02881583 0 0 Z M-45.390625 23.578125 C-47.51887701 27.52165078 -49.390625 31.05048184 -49.390625 35.578125 C-34.870625 35.578125 -20.350625 35.578125 -5.390625 35.578125 C-6.40166878 26.47873099 -7.23532994 22.73751079 -14.109375 17.19140625 C-25.10033764 10.55491398 -37.65007262 14.16393967 -45.390625 23.578125 Z " fill="#008F7C" transform="translate(654.390625,124.421875)"/>
<path d="M0 0 C0.99 0.66 1.98 1.32 3 2 C3 2.66 3 3.32 3 4 C3.556875 4.061875 4.11375 4.12375 4.6875 4.1875 C10.72168138 6.30761778 13.26224298 11.94656688 15.984375 17.3046875 C18.08958584 22.8915932 18.1236284 28.67738737 18.11352539 34.58764648 C18.11367142 35.31043289 18.11381744 36.0332193 18.1139679 36.77790833 C18.11327699 39.14233511 18.10552352 41.5066809 18.09765625 43.87109375 C18.09578914 45.52018694 18.09436662 47.16928069 18.09336853 48.81837463 C18.0895664 53.14034581 18.07975597 57.46228292 18.06866455 61.78424072 C18.05840071 66.20185892 18.05386029 70.61948267 18.04882812 75.03710938 C18.03813147 83.69142356 18.02055352 92.3457036 18 101 C9.75 101 1.5 101 -7 101 C-7.01458252 98.91091309 -7.02916504 96.82182617 -7.04418945 94.66943359 C-7.09459475 87.75623216 -7.16120023 80.84325456 -7.23571491 73.93027306 C-7.2803848 69.74015614 -7.31964823 65.5501357 -7.34643555 61.35986328 C-7.37250249 57.3137093 -7.41292848 53.26792721 -7.46318626 49.22200394 C-7.47983214 47.6807481 -7.49136061 46.13942798 -7.49761391 44.59809494 C-7.5072802 42.43398075 -7.53536736 40.27081307 -7.56762695 38.10693359 C-7.57873001 36.87671478 -7.58983307 35.64649597 -7.60127258 34.3789978 C-8.11775693 30.00207413 -9.70626717 26.81122596 -12.25 23.25 C-18.48857219 18.793877 -26.8374436 19.49287093 -34.0625 20.5 C-35.5165625 20.7475 -35.5165625 20.7475 -37 21 C-37 21.66 -37 22.32 -37 23 C-38.65002828 24.35386936 -40.3174387 25.68678142 -42 27 C-42.33 27.66 -42.66 28.32 -43 29 C-43.66 29 -44.32 29 -45 29 C-47.06508323 37.18508457 -47.33957532 45.12668742 -47.4140625 53.5390625 C-47.43281479 54.91483671 -47.45239107 56.29059991 -47.4727478 57.66635132 C-47.52364699 61.25333098 -47.5634958 64.84034777 -47.60089111 68.42749023 C-47.64119858 72.10148987 -47.69216758 75.77534078 -47.7421875 79.44921875 C-47.8384456 86.63271722 -47.92201941 93.8162756 -48 101 C-56.58 101 -65.16 101 -74 101 C-74.0451157 87.86577959 -74.08183807 74.73161033 -74.10362434 61.59733009 C-74.11407861 55.49910233 -74.12826772 49.40093014 -74.15087891 43.30273438 C-74.17254877 37.42186306 -74.18455623 31.54104533 -74.18975449 25.66013718 C-74.1934608 23.41216564 -74.20069788 21.16419715 -74.21146011 18.91624832 C-74.2258972 15.77694521 -74.22798121 12.63786591 -74.22705078 9.49853516 C-74.23424133 8.56130112 -74.24143188 7.62406708 -74.24884033 6.65843201 C-74.246091 5.80585312 -74.24334167 4.95327423 -74.24050903 4.07485962 C-74.24235262 3.33189447 -74.24419621 2.58892933 -74.24609566 1.82345009 C-74 0 -74 0 -72 -2 C-69.67749023 -2.24291992 -69.67749023 -2.24291992 -66.80859375 -2.23046875 C-65.78185547 -2.22853516 -64.75511719 -2.22660156 -63.69726562 -2.22460938 C-62.62154297 -2.21236328 -61.54582031 -2.20011719 -60.4375 -2.1875 C-59.35791016 -2.18685547 -58.27832031 -2.18621094 -57.16601562 -2.18554688 C-49.14014598 -2.14014598 -49.14014598 -2.14014598 -48 -1 C-47.76712992 0.68183948 -47.58735834 2.3712416 -47.4375 4.0625 C-47.31181641 5.44115234 -47.31181641 5.44115234 -47.18359375 6.84765625 C-47.12300781 7.55792969 -47.06242187 8.26820313 -47 9 C-46.443125 8.2575 -45.88625 7.515 -45.3125 6.75 C-34.17209643 -6.49804749 -14.87135313 -7.57388617 0 0 Z " fill="#008F7B" transform="translate(548,122)"/>
<path d="M0 0 C5.83056252 3.78097473 10.60378548 7.89430552 14 14 C14.5878125 15.02287109 14.5878125 15.02287109 15.1875 16.06640625 C19.3380687 24.58371909 19.35269893 34.85282378 17.33984375 44 C13.93998318 53.41952713 7.13542855 61.80688976 -1.90625 66.08203125 C-11.34324769 70.21952091 -21.52173576 70.15873443 -31.32421875 67.1796875 C-40.64576234 63.07004346 -47.29958554 55.49936894 -51.18359375 46.25390625 C-54.31615824 37.60563013 -53.99688468 26.67439989 -51 18 C-49.49073989 14.89631776 -47.81675066 11.93315088 -46 9 C-45.34 9 -44.68 9 -44 9 C-43.814375 8.443125 -43.62875 7.88625 -43.4375 7.3125 C-34.88738843 -6.44202731 -12.73158339 -7.42493714 0 0 Z " fill="#00907C" transform="translate(173,122)"/>
<path d="M0 0 C1.02996094 -0.00128906 2.05992187 -0.00257812 3.12109375 -0.00390625 C4.74724609 0.00189453 4.74724609 0.00189453 6.40625 0.0078125 C7.49035156 0.00394531 8.57445312 0.00007813 9.69140625 -0.00390625 C10.72136719 -0.00261719 11.75132812 -0.00132813 12.8125 0 C14.24045898 0.00169189 14.24045898 0.00169189 15.69726562 0.00341797 C17.90625 0.1328125 17.90625 0.1328125 18.90625 1.1328125 C19.00489348 2.96544598 19.03257145 4.8019208 19.03323364 6.63720703 C19.03605347 7.83194641 19.03887329 9.02668579 19.04177856 10.25762939 C19.03983397 11.59362808 19.03778579 12.92962662 19.03564453 14.265625 C19.03699855 15.66314744 19.03877848 17.06066952 19.04095459 18.45819092 C19.04552892 22.26387144 19.04373937 26.06952497 19.0405755 29.87520599 C19.0380519 33.84925919 19.04038944 37.82331 19.04196167 41.79736328 C19.04378336 48.47233497 19.04137706 55.14729561 19.03662109 61.82226562 C19.03117847 69.55042214 19.03294113 77.27855227 19.0384475 85.00670815 C19.04297863 91.63004597 19.04362918 98.25337583 19.04100883 104.87671471 C19.03944606 108.83775643 19.0392523 112.79878573 19.04254532 116.75982666 C19.04542404 120.48289481 19.04344833 124.20592879 19.03765106 127.92899323 C19.03632347 129.29924716 19.03671757 130.66950395 19.03891373 132.03975677 C19.04162522 133.90264283 19.03763042 135.76553513 19.03323364 137.62841797 C19.03285662 138.67335419 19.03247959 139.71829041 19.03209114 140.79489136 C18.90625 143.1328125 18.90625 143.1328125 17.90625 144.1328125 C16.21066274 144.23213403 14.51099253 144.26361257 12.8125 144.265625 C11.78253906 144.26691406 10.75257813 144.26820313 9.69140625 144.26953125 C8.06525391 144.26373047 8.06525391 144.26373047 6.40625 144.2578125 C5.32214844 144.26167969 4.23804688 144.26554688 3.12109375 144.26953125 C2.09113281 144.26824219 1.06117188 144.26695312 0 144.265625 C-0.95197266 144.26449707 -1.90394531 144.26336914 -2.88476562 144.26220703 C-5.09375 144.1328125 -5.09375 144.1328125 -6.09375 143.1328125 C-6.19239348 141.30017902 -6.22007145 139.4637042 -6.22073364 137.62841797 C-6.22355347 136.43367859 -6.22637329 135.23893921 -6.22927856 134.00799561 C-6.22733397 132.67199692 -6.22528579 131.33599838 -6.22314453 130 C-6.22449855 128.60247756 -6.22627848 127.20495548 -6.22845459 125.80743408 C-6.23302892 122.00175356 -6.23123937 118.19610003 -6.2280755 114.39041901 C-6.2255519 110.41636581 -6.22788944 106.442315 -6.22946167 102.46826172 C-6.23128336 95.79329003 -6.22887706 89.11832939 -6.22412109 82.44335938 C-6.21867847 74.71520286 -6.22044113 66.98707273 -6.2259475 59.25891685 C-6.23047863 52.63557903 -6.23112918 46.01224917 -6.22850883 39.38891029 C-6.22694606 35.42786857 -6.2267523 31.46683927 -6.23004532 27.50579834 C-6.23292404 23.78273019 -6.23094833 20.05969621 -6.22515106 16.33663177 C-6.22382347 14.96637784 -6.22421757 13.59612105 -6.22641373 12.22586823 C-6.22912522 10.36298217 -6.22513042 8.50008987 -6.22073364 6.63720703 C-6.22035662 5.59227081 -6.21997959 4.54733459 -6.21959114 3.47073364 C-5.98734398 -0.84403607 -3.79363499 0.00449483 0 0 Z " fill="#00907D" transform="translate(871.09375,78.8671875)"/>
<path d="M0 0 C1.02996094 -0.00128906 2.05992187 -0.00257812 3.12109375 -0.00390625 C4.74724609 0.00189453 4.74724609 0.00189453 6.40625 0.0078125 C7.49035156 0.00394531 8.57445312 0.00007813 9.69140625 -0.00390625 C10.72136719 -0.00261719 11.75132812 -0.00132813 12.8125 0 C14.24045898 0.00169189 14.24045898 0.00169189 15.69726562 0.00341797 C17.90625 0.1328125 17.90625 0.1328125 18.90625 1.1328125 C19.00489348 2.96544598 19.03257145 4.8019208 19.03323364 6.63720703 C19.03605347 7.83194641 19.03887329 9.02668579 19.04177856 10.25762939 C19.03983397 11.59362808 19.03778579 12.92962662 19.03564453 14.265625 C19.03699855 15.66314744 19.03877848 17.06066952 19.04095459 18.45819092 C19.04552892 22.26387144 19.04373937 26.06952497 19.0405755 29.87520599 C19.0380519 33.84925919 19.04038944 37.82331 19.04196167 41.79736328 C19.04378336 48.47233497 19.04137706 55.14729561 19.03662109 61.82226562 C19.03117847 69.55042214 19.03294113 77.27855227 19.0384475 85.00670815 C19.04297863 91.63004597 19.04362918 98.25337583 19.04100883 104.87671471 C19.03944606 108.83775643 19.0392523 112.79878573 19.04254532 116.75982666 C19.04542404 120.48289481 19.04344833 124.20592879 19.03765106 127.92899323 C19.03632347 129.29924716 19.03671757 130.66950395 19.03891373 132.03975677 C19.04162522 133.90264283 19.03763042 135.76553513 19.03323364 137.62841797 C19.03285662 138.67335419 19.03247959 139.71829041 19.03209114 140.79489136 C18.90625 143.1328125 18.90625 143.1328125 17.90625 144.1328125 C16.21066274 144.23213403 14.51099253 144.26361257 12.8125 144.265625 C11.78253906 144.26691406 10.75257813 144.26820313 9.69140625 144.26953125 C8.06525391 144.26373047 8.06525391 144.26373047 6.40625 144.2578125 C5.32214844 144.26167969 4.23804688 144.26554688 3.12109375 144.26953125 C2.09113281 144.26824219 1.06117188 144.26695312 0 144.265625 C-0.95197266 144.26449707 -1.90394531 144.26336914 -2.88476562 144.26220703 C-5.09375 144.1328125 -5.09375 144.1328125 -6.09375 143.1328125 C-6.19239348 141.30017902 -6.22007145 139.4637042 -6.22073364 137.62841797 C-6.22355347 136.43367859 -6.22637329 135.23893921 -6.22927856 134.00799561 C-6.22733397 132.67199692 -6.22528579 131.33599838 -6.22314453 130 C-6.22449855 128.60247756 -6.22627848 127.20495548 -6.22845459 125.80743408 C-6.23302892 122.00175356 -6.23123937 118.19610003 -6.2280755 114.39041901 C-6.2255519 110.41636581 -6.22788944 106.442315 -6.22946167 102.46826172 C-6.23128336 95.79329003 -6.22887706 89.11832939 -6.22412109 82.44335938 C-6.21867847 74.71520286 -6.22044113 66.98707273 -6.2259475 59.25891685 C-6.23047863 52.63557903 -6.23112918 46.01224917 -6.22850883 39.38891029 C-6.22694606 35.42786857 -6.2267523 31.46683927 -6.23004532 27.50579834 C-6.23292404 23.78273019 -6.23094833 20.05969621 -6.22515106 16.33663177 C-6.22382347 14.96637784 -6.22421757 13.59612105 -6.22641373 12.22586823 C-6.22912522 10.36298217 -6.22513042 8.50008987 -6.22073364 6.63720703 C-6.22035662 5.59227081 -6.21997959 4.54733459 -6.21959114 3.47073364 C-5.98734398 -0.84403607 -3.79363499 0.00449483 0 0 Z M-3.09375 3.1328125 C-3.09375 48.6728125 -3.09375 94.2128125 -3.09375 141.1328125 C3.50625 141.1328125 10.10625 141.1328125 16.90625 141.1328125 C16.90625 95.5928125 16.90625 50.0528125 16.90625 3.1328125 C10.30625 3.1328125 3.70625 3.1328125 -3.09375 3.1328125 Z " fill="#038570" transform="translate(871.09375,78.8671875)"/>
<path d="M0 0 C0.7528125 0.69351563 1.505625 1.38703125 2.28125 2.1015625 C2.28125 2.7615625 2.28125 3.4215625 2.28125 4.1015625 C2.838125 4.3078125 3.395 4.5140625 3.96875 4.7265625 C7.29728962 6.70569417 9.02429069 8.94181946 11.28125 12.1015625 C10.95125 13.0915625 10.62125 14.0815625 10.28125 15.1015625 C8.90562146 13.81191074 7.57358607 12.47466957 6.28125 11.1015625 C6.28125 10.4415625 6.28125 9.7815625 6.28125 9.1015625 C4.30125 8.1115625 4.30125 8.1115625 2.28125 7.1015625 C2.28125 6.4415625 2.28125 5.7815625 2.28125 5.1015625 C0.30125 4.1115625 0.30125 4.1115625 -1.71875 3.1015625 C-1.71875 2.4415625 -1.71875 1.7815625 -1.71875 1.1015625 C-2.316875 0.9984375 -2.915 0.8953125 -3.53125 0.7890625 C-5.71875 0.1015625 -5.71875 0.1015625 -7.08203125 -1.28515625 C-8.9438366 -3.1203009 -10.78951964 -4.17161178 -13.09375 -5.3984375 C-15.49409844 -6.68522223 -17.84297343 -7.97620176 -20.15234375 -9.421875 C-27.66819735 -13.74606474 -36.12551424 -15.60344582 -44.71875 -15.8984375 C-46.23082031 -15.95837891 -46.23082031 -15.95837891 -47.7734375 -16.01953125 C-59.60325657 -16.26066665 -69.86223089 -14.57538899 -80.81640625 -10.07421875 C-84.08360037 -8.75063136 -87.3085406 -7.77081665 -90.71875 -6.8984375 C-90.71875 -6.2384375 -90.71875 -5.5784375 -90.71875 -4.8984375 C-92.3359375 -3.7421875 -92.3359375 -3.7421875 -94.59375 -2.3984375 C-100.49443647 1.38549478 -107.52749638 6.71905526 -110.71875 13.1015625 C-111.37875 13.1015625 -112.03875 13.1015625 -112.71875 13.1015625 C-112.81671875 13.64554688 -112.9146875 14.18953125 -113.015625 14.75 C-113.90525917 17.72533205 -115.38174481 20.05625377 -116.96875 22.7265625 C-126.28567858 40.18141017 -126.34290571 57.22418713 -126.00216675 76.62219238 C-125.94576928 80.17373925 -125.9191612 83.72546763 -125.89257812 87.27734375 C-125.88456429 88.3388093 -125.88456429 88.3388093 -125.87638855 89.4217186 C-125.8657109 90.84736541 -125.85515659 92.27301316 -125.84472656 93.6986618 C-125.82818589 95.82031465 -125.80845493 97.94191837 -125.78808594 100.0635376 C-125.67910225 112.08368747 -125.86055205 124.0865555 -126.21875 136.1015625 C-126.24312134 136.94648254 -126.26749268 137.79140259 -126.29260254 138.66192627 C-126.4228138 143.14223629 -126.56394239 147.62202309 -126.71875 152.1015625 C-130.51435495 152.32633373 -131.39026145 152.36031605 -134.515625 149.8984375 C-135.51557893 148.89814734 -136.49920256 147.88135182 -137.46875 146.8515625 C-137.99243164 146.30870605 -138.51611328 145.76584961 -139.05566406 145.20654297 C-151.16552776 132.41323669 -165.47618371 113.32586805 -166.71875 95.1015625 C-166.05875 95.1015625 -165.39875 95.1015625 -164.71875 95.1015625 C-164.30625 96.23851562 -163.89375 97.37546875 -163.46875 98.546875 C-158.62164953 111.62181474 -153.11701648 123.54964139 -144.06640625 134.33203125 C-142.71875 136.1015625 -142.71875 136.1015625 -141.71875 139.1015625 C-141.05875 139.1015625 -140.39875 139.1015625 -139.71875 139.1015625 C-138.0625 140.81640625 -138.0625 140.81640625 -136.21875 143.0390625 C-133.82948001 146.02201429 -133.82948001 146.02201429 -130.71875 148.1015625 C-128.84077724 131.06997861 -128.62053872 113.97399783 -128.796875 96.85546875 C-128.80967424 95.44021736 -128.82232812 94.02496466 -128.83483887 92.60971069 C-128.88820445 86.83433794 -128.94288386 81.05923672 -129.04101562 75.28442383 C-129.48483594 48.27649456 -126.689682 25.7148566 -108.2890625 4.75390625 C-78.20654196 -26.28869473 -32.67527777 -26.19349713 0 0 Z " fill="#00816A" transform="translate(206.71875,95.8984375)"/>
<path d="M0 0 C4.17748412 1.70385998 7.94059846 3.88119692 10 8 C11.19843133 13.62340856 11.25464128 17.56836419 9 23 C5.8191662 27.33750064 2.59735631 29.0681343 -2.58984375 29.96875 C-7.01738167 30.0261573 -10.43037159 28.54871468 -14 26 C-17.05544297 22.73921812 -18.21737996 19.36529921 -18.4375 14.9375 C-17.89197232 10.02775092 -17.1220955 6.81142836 -13.265625 3.51953125 C-8.83919405 0.45705867 -5.47720492 -0.8962699 0 0 Z " fill="#008F7C" transform="translate(701,195)"/>
<path d="M0 0 C1.859375 0.59765625 1.859375 0.59765625 4 2 C11.38403792 18.02153907 10.21756351 41.05118881 5.28125 57.60546875 C3.25585076 62.97154173 0.78921253 67.9953558 -2 73 C-2.67379668 74.32974443 -3.34335808 75.66170123 -4 77 C-4.66 77 -5.32 77 -6 77 C-6.20625 77.680625 -6.4125 78.36125 -6.625 79.0625 C-12.24517939 91.06924688 -26.13445193 98.44564128 -38 103 C-56.74534543 108.49164882 -76.32004479 106.82156294 -93.51953125 97.46484375 C-94.33808594 96.98144531 -95.15664063 96.49804688 -96 96 C-96.91136719 95.48566406 -97.82273437 94.97132813 -98.76171875 94.44140625 C-101 93 -101 93 -102 91 C-102.61101562 90.70351562 -103.22203125 90.40703125 -103.8515625 90.1015625 C-111.99247108 85.92749665 -119.86235673 73.45721089 -123 65 C-123.25 62 -123.25 62 -123 60 C-120.4238579 62.29483923 -119.16129369 64.49431329 -117.75 67.625 C-110.58468028 82.27457059 -97.76788027 93.64479806 -82.45678711 99.19287109 C-64.70194791 105.01051161 -45.902896 103.76568497 -29.22265625 95.6484375 C-13.59621476 87.02861307 -2.81545774 72.31078264 2.375 55.3828125 C7.24539078 36.81444764 5.43740092 18.20347265 0 0 Z " fill="#01816A" transform="translate(453,120)"/>
<path d="M0 0 C5.85547518 7.47077867 4.97840047 16.49165008 4.87890625 25.4609375 C4.87330221 26.95165579 4.86903593 28.44237965 4.86604309 29.93310547 C4.85465778 33.8326985 4.82524618 37.73194959 4.79193115 41.63140869 C4.76109303 45.62011084 4.74750856 49.60886892 4.73242188 53.59765625 C4.70036933 61.406423 4.6476543 69.21483853 4.5859375 77.0234375 C11.1859375 77.0234375 17.7859375 77.0234375 24.5859375 77.0234375 C24.5859375 53.9234375 24.5859375 30.8234375 24.5859375 7.0234375 C24.9159375 7.0234375 25.2459375 7.0234375 25.5859375 7.0234375 C25.9159375 30.7834375 26.2459375 54.5434375 26.5859375 79.0234375 C18.3359375 79.0234375 10.0859375 79.0234375 1.5859375 79.0234375 C1.57135498 76.93435059 1.55677246 74.84526367 1.54174805 72.69287109 C1.49134275 65.77966966 1.42473727 58.86669206 1.35022259 51.95371056 C1.3055527 47.76359364 1.26628927 43.5735732 1.23950195 39.38330078 C1.21343501 35.3371468 1.17300902 31.29136471 1.12275124 27.24544144 C1.10610536 25.7041856 1.09457689 24.16286548 1.08832359 22.62153244 C1.0786573 20.45741825 1.05057014 18.29425057 1.01831055 16.13037109 C1.00165596 14.28504288 1.00165596 14.28504288 0.98466492 12.4024353 C0.46818057 8.02551163 -1.12032967 4.83466346 -3.6640625 1.2734375 C-9.90263469 -3.1826855 -18.2515061 -2.48369157 -25.4765625 -1.4765625 C-26.4459375 -1.3115625 -27.4153125 -1.1465625 -28.4140625 -0.9765625 C-28.4140625 -0.3165625 -28.4140625 0.3434375 -28.4140625 1.0234375 C-30.2265625 2.7109375 -30.2265625 2.7109375 -32.4140625 4.0234375 C-33.4040625 3.6934375 -34.3940625 3.3634375 -35.4140625 3.0234375 C-25.11565451 -7.22019173 -12.32495417 -9.31099158 0 0 Z " fill="#068773" transform="translate(539.4140625,143.9765625)"/>
<path d="M0 0 C0.66 0 1.32 0 2 0 C2 46.2 2 92.4 2 140 C9.59 140 17.18 140 25 140 C24.67 140.99 24.34 141.98 24 143 C20.18751574 143.02887236 16.3750593 143.04675492 12.5625 143.0625 C11.47388672 143.07087891 10.38527344 143.07925781 9.26367188 143.08789062 C8.22919922 143.09111328 7.19472656 143.09433594 6.12890625 143.09765625 C4.69140015 143.10551147 4.69140015 143.10551147 3.22485352 143.11352539 C1 143 1 143 0 142 C-0.09646028 140.16505514 -0.12187344 138.32635413 -0.12025452 136.48887634 C-0.12162918 135.2926918 -0.12300385 134.09650726 -0.12442017 132.86407471 C-0.12088057 131.52648901 -0.11724575 130.18890356 -0.11352539 128.85131836 C-0.11324352 127.45217389 -0.11340125 126.05302927 -0.1139679 124.65388489 C-0.11425588 120.84413541 -0.10835898 117.03441714 -0.10139394 113.22467494 C-0.09516059 109.24748691 -0.09455662 105.27029824 -0.09336853 101.29310608 C-0.09025516 93.75661461 -0.08204169 86.22013757 -0.07201904 78.68365246 C-0.06085808 70.10580172 -0.0553475 61.5279503 -0.05032361 52.9500941 C-0.03985908 35.30005454 -0.02225953 17.65002843 0 0 Z " fill="#047261" transform="translate(865,80)"/>
<path d="M0 0 C0.79163145 2.26536044 1.20839092 3.48870207 0.28515625 5.75390625 C-1.12951982 7.84654209 -2.54859225 9.93252708 -4 12 C-4.54785156 12.82757813 -5.09570312 13.65515625 -5.66015625 14.5078125 C-10.84545059 22.06006711 -17.01166559 28.3140776 -23.58862305 34.63378906 C-24.82905367 35.83452419 -26.04369416 37.06178245 -27.25390625 38.29296875 C-29.33408091 40.32660707 -31.47657139 41.54201903 -34 43 C-35.27111675 43.89543114 -36.54190914 44.79132279 -37.8125 45.6875 C-47.54062441 52.19998395 -58.74598285 57.76392832 -70 61 C-70.62052246 61.18046875 -71.24104492 61.3609375 -71.88037109 61.546875 C-86.48815025 65.62891666 -100.93307397 65.43931824 -116 65 C-116 64.34 -116 63.68 -116 63 C-115.175 62.96036133 -114.35 62.92072266 -113.5 62.87988281 C-91.43770819 61.91732479 -91.43770819 61.91732479 -70 57 C-68.25009766 56.46052734 -68.25009766 56.46052734 -66.46484375 55.91015625 C-37.09335169 46.24976517 -15.38051719 26.46277537 0 0 Z " fill="#007E66" transform="translate(260,212)"/>
<path d="M0 0 C9.3764119 7.54423946 9.3764119 7.54423946 11.0390625 13.640625 C7.7152152 11.97870135 5.59739042 10.22018831 3.3515625 7.328125 C-1.88316602 0.96010474 -9.03363892 -2.51759364 -16.9609375 -4.359375 C-28.10427963 -5.16292459 -38.35354537 -4.49277247 -47.9609375 1.640625 C-48.2909375 2.300625 -48.6209375 2.960625 -48.9609375 3.640625 C-49.9509375 3.970625 -50.9409375 4.300625 -51.9609375 4.640625 C-58.32385153 11.49299396 -61.56785105 18.71164878 -64.2109375 27.578125 C-64.4790625 28.45275391 -64.7471875 29.32738281 -65.0234375 30.22851562 C-65.67683146 32.36371375 -66.32245209 34.50093117 -66.9609375 36.640625 C-67.2909375 36.640625 -67.6209375 36.640625 -67.9609375 36.640625 C-68.69505919 25.3840924 -63.83719418 14.26707501 -56.5234375 5.828125 C-55.6778125 5.10625 -54.8321875 4.384375 -53.9609375 3.640625 C-53.19330078 2.90585938 -53.19330078 2.90585938 -52.41015625 2.15625 C-37.59201034 -11.60589011 -16.10124722 -11.592898 0 0 Z " fill="#008068" transform="translate(417.9609375,109.359375)"/>
<path d="M0 0 C4.5185441 3.66368441 5.79804058 6.79438008 7.26953125 12.36328125 C7.94620827 14.80583198 8.77075627 17.04051601 9.75 19.375 C12.22246255 25.35645748 14.2842271 31.47782871 16.36230469 37.60498047 C18.04765314 42.5101708 19.91896854 47.24715091 22.1015625 51.95336914 C23.34435821 54.78444425 24.27949835 57.68727322 25.22265625 60.62890625 C26.06999732 63.21350943 26.99653354 65.76054037 27.9375 68.3125 C29.80516766 73.39111937 31.50663553 78.5145914 33.16796875 83.6640625 C33.78685236 85.92980314 33.78685236 85.92980314 35 87 C35.14115161 89.67058851 35.04247107 92.32432238 35 95 C32.70369983 91.55554974 31.43554563 88.01109422 30.05078125 84.14453125 C29.76113998 83.34661163 29.47149872 82.54869202 29.17308044 81.72659302 C28.54509593 79.99588678 27.91882576 78.26455776 27.29406738 76.53268433 C25.62287981 71.90137902 23.93828092 67.27495987 22.25390625 62.6484375 C21.90621185 61.69273361 21.55851746 60.73702972 21.20028687 59.75236511 C17.44850412 49.45636823 13.60700841 39.19445576 9.75 28.9375 C9.43044342 28.08733307 9.11088684 27.23716614 8.78164673 26.36123657 C7.34891541 22.55014071 5.91507882 18.73946456 4.47949219 14.92944336 C4.23791382 14.28433807 3.99633545 13.63923279 3.74743652 12.97457886 C3.22253742 11.58789967 2.68717244 10.20515877 2.14416504 8.82546997 C0 3.31836537 0 3.31836537 0 0 Z " fill="#02876D" transform="translate(813,124)"/>
<path d="M0 0 C18.81 0 37.62 0 57 0 C61.5 10.125 61.5 10.125 62.75 14.5625 C62.99234375 15.40941406 63.2346875 16.25632813 63.484375 17.12890625 C63.65453125 17.74636719 63.8246875 18.36382812 64 19 C62.515 18.505 62.515 18.505 61 18 C60.23501059 16.15127559 59.47418991 14.29726246 58.84375 12.3984375 C57.72052227 9.20555868 56.33329409 6.11101954 55 3 C37.18 2.67 19.36 2.34 1 2 C0.67 4.31 0.34 6.62 0 9 C-0.91195165 12.11741527 -2.11821486 15.10548664 -3.3125 18.125 C-3.60833984 18.91003906 -3.90417969 19.69507813 -4.20898438 20.50390625 C-5.93959093 24.93695025 -7.75262809 28.43004148 -11 32 C-10.39219873 28.6794548 -9.59292747 25.56736229 -8.4765625 22.3828125 C-8.1775 21.52816406 -7.8784375 20.67351562 -7.5703125 19.79296875 C-7.25835938 18.91253906 -6.94640625 18.03210938 -6.625 17.125 C-6.32078125 16.25230469 -6.0165625 15.37960938 -5.703125 14.48046875 C-3.966035 9.54386682 -2.07008785 4.83020499 0 0 Z " fill="#007E67" transform="translate(755,187)"/>
<path d="M0 0 C0.71484375 1.5546875 0.71484375 1.5546875 1 4 C-0.04146615 6.52206903 -1.11515783 8.75801641 -2.4375 11.125 C-2.80367432 11.79225098 -3.16984863 12.45950195 -3.54711914 13.14697266 C-14.7018612 32.95374436 -31.0992304 44.96221073 -52.2890625 52.109375 C-61.4487637 54.5674214 -70.59978615 54.28485497 -80 54 C-80 53.67 -80 53.34 -80 53 C-78.79601562 52.95101562 -77.59203125 52.90203125 -76.3515625 52.8515625 C-74.77601802 52.77653657 -73.20049834 52.70098867 -71.625 52.625 C-70.8309375 52.5940625 -70.036875 52.563125 -69.21875 52.53125 C-64.63332625 52.48183579 -64.63332625 52.48183579 -61 50 C-58.99506683 49.47647369 -56.96987346 49.02909765 -54.9375 48.625 C-49.17708158 47.34911785 -44.20988717 45.74622866 -39 43 C-38.05382812 42.50628906 -37.10765625 42.01257813 -36.1328125 41.50390625 C-20.81274265 33.06422401 -11.47928595 21.53390158 -4 6 C-3.23816406 5.24589844 -3.23816406 5.24589844 -2.4609375 4.4765625 C-0.73878529 2.9537721 -0.73878529 2.9537721 0 0 Z " fill="#01846D" transform="translate(228,178)"/>
<path d="M0 0 C1.04685735 2.05615928 2.04880705 4.11172698 2.97265625 6.2265625 C8.61810898 18.65060542 17.02608517 25.92046718 29.51171875 31.02734375 C41.84244244 35.12499619 57.27840951 34.57176973 69 29 C71.59514464 27.26370696 73.95375275 25.45642614 76.29296875 23.390625 C78 22 78 22 80 22 C80 22.99 80 23.98 80 25 C70.12739635 34.6051742 57.49821957 36.57821775 44.31738281 36.40258789 C33.01626684 36.02265513 24.33286398 33.46917559 15 27 C14.0925 26.38125 13.185 25.7625 12.25 25.125 C6.86509748 20.03925873 0.65258509 12.54697322 -0.2421875 4.94140625 C-0.25 3 -0.25 3 0 0 Z " fill="#007C66" transform="translate(582,189)"/>
<path d="M0 0 C4.35020049 4.35020049 3.36440548 11.35585521 3.3828125 17.14428711 C3.25796936 23.60556974 2.18091758 27.93835644 -2 33 C-2.60457031 33.78890625 -3.20914063 34.5778125 -3.83203125 35.390625 C-7.96796546 40.44837492 -11.86591773 43.73875989 -18 46 C-19.0725 46.4125 -20.145 46.825 -21.25 47.25 C-31.20718505 49.24143701 -42.07288977 48.86223544 -50.76953125 43.1953125 C-56.0135514 39.12601429 -61.72441956 34.44747793 -64 28 C-64.0777346 25.66796188 -64.08967728 23.33160941 -64 21 C-62.45790811 23.31313784 -61.21711525 25.46048029 -60 27.9375 C-59.67 28.60652344 -59.34 29.27554688 -59 29.96484375 C-58.31165846 31.36572633 -57.64070675 32.77524428 -56.984375 34.19140625 C-55.68694125 36.57518335 -54.46494743 36.90446781 -52 38 C-50.6696875 38.9590625 -50.6696875 38.9590625 -49.3125 39.9375 C-40.98571822 45.12209998 -32.47345749 46.43404503 -22.87890625 44.30859375 C-12.8477603 41.31553023 -7.34599927 36.7377387 -2.22265625 27.65234375 C1.89188673 18.72654604 1.33334419 9.50007736 0 0 Z " fill="#007F68" transform="translate(187,143)"/>
<path d="M0 0 C0.495 0.99 0.495 0.99 1 2 C1.66 2 2.32 2 3 2 C4.90413447 10.33058831 5.51731636 18.4582648 5 27 C3.15591378 28.84408622 0.16101736 28.13739916 -2.30810547 28.14526367 C-3.29596039 28.15030159 -3.29596039 28.15030159 -4.30377197 28.15544128 C-6.49159608 28.1649783 -8.67934387 28.16689588 -10.8671875 28.16796875 C-12.38314852 28.17117985 -13.89910922 28.17454381 -15.41506958 28.17805481 C-18.59784666 28.18405327 -21.78059657 28.18589402 -24.96337891 28.18530273 C-29.04469806 28.18520117 -33.12584302 28.1988443 -37.2071209 28.21607494 C-40.34006553 28.22718721 -43.472968 28.22922217 -46.60593033 28.22869301 C-48.11064376 28.22987464 -49.61535824 28.23430668 -51.12005234 28.24202538 C-53.22452771 28.25180814 -55.32862417 28.24895404 -57.43310547 28.24291992 C-59.23060745 28.24505745 -59.23060745 28.24505745 -61.06442261 28.24723816 C-64 28 -64 28 -67 26 C-44.23 26 -21.46 26 2 26 C1.34 17.42 0.68 8.84 0 0 Z " fill="#007860" transform="translate(671,150)"/>
<path d="M0 0 C0.99 0.33 1.98 0.66 3 1 C3 1.66 3 2.32 3 3 C4.32 3.33 5.64 3.66 7 4 C7 4.66 7 5.32 7 6 C7.721875 6.20625 8.44375 6.4125 9.1875 6.625 C12.20841062 8.10188963 13.72169684 9.80769375 15.76171875 12.44140625 C17.09672217 14.18967825 17.09672217 14.18967825 19.3125 16.25 C26.0065309 23.09970604 31.35060094 30.65276283 36 39 C36.60070312 40.06863281 37.20140625 41.13726562 37.8203125 42.23828125 C46.53345151 58.04223841 46.53345151 58.04223841 46 68 C43.62844111 65.62844111 43.30858788 64.07711918 42.375 60.875 C38.09857074 47.64827455 31.31182482 35.76839978 22.5625 25 C21 23 21 23 21 21 C20.34 21 19.68 21 19 21 C17.625 19.56640625 17.625 19.56640625 16 17.5625 C11.54574666 12.31116975 6.2288765 6.11443825 0 3 C0 2.01 0 1.02 0 0 Z " fill="#01836A" transform="translate(224,52)"/>
<path d="M0 0 C1.32 0 2.64 0 4 0 C5.36635785 3.78738566 6.71599719 7.58051463 8.0625 11.375 C8.64741211 12.99535156 8.64741211 12.99535156 9.24414062 14.6484375 C9.60830078 15.6796875 9.97246094 16.7109375 10.34765625 17.7734375 C10.68804932 18.72653809 11.02844238 19.67963867 11.37915039 20.66162109 C12 23 12 23 11 25 C7.64944717 21.25704008 6.38200683 16.92364255 4.8125 12.25 C4.53986328 11.45722656 4.26722656 10.66445312 3.98632812 9.84765625 C3.31777387 7.90063859 2.65801022 5.95060634 2 4 C1.75354736 4.68924561 1.50709473 5.37849121 1.25317383 6.08862305 C-6.9771054 29.08538691 -6.9771054 29.08538691 -11.0078125 39.3984375 C-12.4670919 43.22473702 -13.75095549 47.10095565 -15 51 C-15.33 51.99 -15.66 52.98 -16 54 C-16.66 54 -17.32 54 -18 54 C-18.33 54.66 -18.66 55.32 -19 56 C-18.35598062 50.83969284 -16.78767587 46.37994863 -14.9375 41.5625 C-11.73506019 33.06118653 -8.71057024 24.50781003 -5.75366211 15.91821289 C-3.91238035 10.5804221 -2.00911785 5.27703485 0 0 Z " fill="#018469" transform="translate(782,109)"/>
<path d="M0 0 C-2.27437456 2.27437456 -4.45293709 3.34595826 -7.3125 4.8125 C-11.59111902 7.11894306 -14.81462729 9.2685634 -18 13 C-18.47824219 13.50015625 -18.95648437 14.0003125 -19.44921875 14.515625 C-32.42303601 28.50251111 -32.49756315 46.00862691 -32 64 C-32.99 63.67 -33.98 63.34 -35 63 C-35.70260931 44.78620473 -35.75359151 29.9367157 -24.55078125 14.66015625 C-24.03902344 14.11230469 -23.52726563 13.56445312 -23 13 C-22.34 13 -21.68 13 -21 13 C-20.93554688 12.41476563 -20.87109375 11.82953125 -20.8046875 11.2265625 C-19.67296582 8.09509959 -17.87758346 7.18612013 -15.125 5.375 C-14.24070312 4.78460938 -13.35640625 4.19421875 -12.4453125 3.5859375 C-11.63835938 3.06257813 -10.83140625 2.53921875 -10 2 C-6.3558226 -0.4294516 -4.28758728 -0.16179575 0 0 Z " fill="#02836D" transform="translate(613,122)"/>
<path d="M0 0 C2.38541996 0.0084461 4.76838338 -0.02023238 7.15356445 -0.05200195 C21.74196679 -0.11799326 36.05948363 2.16772047 49.35083008 8.44604492 C49.35083008 9.43604492 49.35083008 10.42604492 49.35083008 11.44604492 C48.74279541 11.26066162 48.13476074 11.07527832 47.50830078 10.88427734 C44.79192961 10.06188496 42.07236294 9.25119049 39.35083008 8.44604492 C38.55209473 8.20966309 37.75335938 7.97328125 36.93041992 7.72973633 C25.37889915 4.43307492 14.31212941 2.97308205 2.28833008 2.94604492 C1.10070068 2.94000244 -0.08692871 2.93395996 -1.31054688 2.92773438 C-8.50306104 3.02961703 -14.96777262 3.99017826 -21.90478516 5.9050293 C-24.62758141 6.44178906 -26.07265015 6.37385404 -28.64916992 5.44604492 C-27.98916992 5.44604492 -27.32916992 5.44604492 -26.64916992 5.44604492 C-26.64916992 4.78604492 -26.64916992 4.12604492 -26.64916992 3.44604492 C-17.77606084 0.23558161 -9.31078416 -0.05001232 0 0 Z " fill="#05826E" transform="translate(151.649169921875,29.553955078125)"/>
<path d="M0 0 C1.53333984 0.00676758 1.53333984 0.00676758 3.09765625 0.01367188 C5.60683194 0.025397 8.1158849 0.04180824 10.625 0.0625 C10.625 0.3925 10.625 0.7225 10.625 1.0625 C10.05168945 1.10213867 9.47837891 1.14177734 8.88769531 1.18261719 C-7.12194638 2.32187563 -7.12194638 2.32187563 -22.375 7.0625 C-23.43654297 7.49175781 -23.43654297 7.49175781 -24.51953125 7.9296875 C-37.44943116 13.69331152 -47.30404922 25.13027055 -54.375 37.0625 C-54.705 37.0625 -55.035 37.0625 -55.375 37.0625 C-55.8151757 32.53847193 -54.63680946 30.38233956 -52 26.75 C-51.06027344 25.42548828 -51.06027344 25.42548828 -50.1015625 24.07421875 C-49.53179687 23.41035156 -48.96203125 22.74648437 -48.375 22.0625 C-47.715 22.0625 -47.055 22.0625 -46.375 22.0625 C-45.715 20.7425 -45.055 19.4225 -44.375 18.0625 C-43.715 18.0625 -43.055 18.0625 -42.375 18.0625 C-41.715 16.7425 -41.055 15.4225 -40.375 14.0625 C-39.385 14.0625 -38.395 14.0625 -37.375 14.0625 C-37.04048828 13.16724609 -37.04048828 13.16724609 -36.69921875 12.25390625 C-33.19944804 6.4622503 -23.60464833 3.38334938 -17.375 1.0625 C-11.62140958 -0.25621931 -5.86634554 -0.04920161 0 0 Z " fill="#03846D" transform="translate(389.375,78.9375)"/>
<path d="M0 0 C-1.77890625 0.69222656 -1.77890625 0.69222656 -3.59375 1.3984375 C-23.77131668 9.44345837 -42.42321371 20.64621301 -56 38 C-56 32.39726035 -51.81021411 28.63422939 -48.125 24.75 C-38.1922438 15.06229535 -14.6142052 -4.87140173 0 0 Z " fill="#01846B" transform="translate(121,37)"/>
<path d="M0 0 C1.14302396 3.42907187 0.89345226 3.93953207 -0.40625 7.1484375 C-0.73455811 7.97851318 -1.06286621 8.80858887 -1.40112305 9.66381836 C-1.94506714 11.00585327 -1.94506714 11.00585327 -2.5 12.375 C-5.43858037 19.83566793 -8.1915916 27.3170137 -10.6875 34.9375 C-10.97399414 35.80584473 -11.26048828 36.67418945 -11.55566406 37.56884766 C-12.62041574 40.79810318 -13.68238184 44.02825217 -14.73876953 47.26025391 C-15.39745241 49.26102033 -16.07120322 51.25598542 -16.75 53.25 C-17.29914062 54.89742187 -17.29914062 54.89742187 -17.859375 56.578125 C-18.23578125 57.37734375 -18.6121875 58.1765625 -19 59 C-20.485 59.495 -20.485 59.495 -22 60 C-21.43865672 54.61110449 -19.97253392 50.04208029 -18 45 C-13.46792237 33.31168023 -9.06372076 21.64421433 -5.34667969 9.6652832 C-5.08145508 8.83472412 -4.81623047 8.00416504 -4.54296875 7.1484375 C-4.31633545 6.41802246 -4.08970215 5.68760742 -3.85620117 4.93505859 C-2.90072924 2.77564299 -1.7574022 1.55350809 0 0 Z " fill="#048670" transform="translate(743,158)"/>
<path d="M0 0 C3 3 3 3 3.36076355 5.22099304 C3.35410172 6.08481094 3.34743988 6.94862885 3.34057617 7.83862305 C3.34034958 8.8194133 3.34012299 9.80020355 3.33988953 10.81071472 C3.32440567 11.86704605 3.30892181 12.92337738 3.29296875 14.01171875 C3.28872391 15.09508011 3.28447906 16.17844147 3.28010559 17.29463196 C3.26329569 20.75917277 3.22563848 24.22313462 3.1875 27.6875 C3.17245619 30.03449682 3.15876726 32.38150274 3.14648438 34.72851562 C3.11338461 40.48587505 3.06316205 46.24289617 3 52 C2.01 51.67 1.02 51.34 0 51 C0 34.17 0 17.34 0 0 Z " fill="#008174" transform="translate(120,218)"/>
<path d="M0 0 C9.57 0 19.14 0 29 0 C30.32 3.3 31.64 6.6 33 10 C32.34 10.99 31.68 11.98 31 13 C30.01 9.7 29.02 6.4 28 3 C19.09 3 10.18 3 1 3 C0.01 6.3 -0.98 9.6 -2 13 C-2.63763539 14.67798788 -3.28627281 16.35293725 -4 18 C-4.33 18 -4.66 18 -5 18 C-5.7461162 9.941945 -4.09690176 8.19380351 0 0 Z " fill="#01856D" transform="translate(770,80)"/>
<path d="M0 0 C10.82306787 -0.77677521 10.82306787 -0.77677521 15.125 2.0625 C18.04944557 6.64413139 19.28304379 10.70821867 18.875 16.125 C17.91268637 20.38667465 17.27517956 22.13421789 14 25 C9.14562057 27.72439662 5.10917457 28.41591655 -0.3125 27.0625 C-5.03971709 25.38628617 -6.82423893 23.45042037 -9 19 C-8.01 17.515 -8.01 17.515 -7 16 C-6.401875 16.94875 -5.80375 17.8975 -5.1875 18.875 C-3.05234198 21.92522574 -1.67179772 23.7025828 2.0859375 24.37109375 C6.54279615 24.50038828 8.3794666 24.49125561 12 21.625 C14.7884805 17.96511934 15.33534793 15.75870317 15.29296875 11.10546875 C14.8224574 7.72406053 13.13740472 5.57745864 11 3 C8.70370006 1.85185003 6.92301914 1.69230191 4.375 1.4375 C3.55773437 1.35371094 2.74046875 1.26992187 1.8984375 1.18359375 C1.27195312 1.12300781 0.64546875 1.06242188 0 1 C0 0.67 0 0.34 0 0 Z " fill="#018668" transform="translate(693,197)"/>
<path d="M0 0 C3.59226414 2.40791504 6.1929351 5.78368864 8.7890625 9.19921875 C8.4590625 9.85921875 8.1290625 10.51921875 7.7890625 11.19921875 C7.1290625 11.19921875 6.4690625 11.19921875 5.7890625 11.19921875 C5.2528125 10.29171875 4.7165625 9.38421875 4.1640625 8.44921875 C1.5164065 4.38627027 -1.56264003 2.50426126 -6.2109375 1.19921875 C-15.60628039 0.06249825 -21.00769071 1.18528552 -28.3984375 6.88671875 C-31.08553954 10.31509032 -32.59503002 14.17664056 -34.2109375 18.19921875 C-34.8709375 18.19921875 -35.5309375 18.19921875 -36.2109375 18.19921875 C-36.5409375 19.18921875 -36.8709375 20.17921875 -37.2109375 21.19921875 C-36.6614841 14.23947563 -33.56011621 6.88766803 -28.2734375 2.19921875 C-20.25484673 -3.03741195 -8.85914531 -3.8640953 0 0 Z " fill="#008469" transform="translate(640.2109375,138.80078125)"/>
<path d="M0 0 C1.58467728 0.28427417 3.1677057 0.57774818 4.75 0.875 C6.07257813 1.11863281 6.07257813 1.11863281 7.421875 1.3671875 C9.86947744 1.96796264 11.80599857 2.77997117 14 4 C14 4.66 14 5.32 14 6 C14.70253906 6.22429687 15.40507812 6.44859375 16.12890625 6.6796875 C19.62062627 8.28540365 22.17007726 10.52083276 24.9375 13.125 C25.46674072 13.6185498 25.99598145 14.11209961 26.54125977 14.62060547 C33.20070634 20.94641243 37.75283123 27.88151811 42 36 C41.01 36.33 40.02 36.66 39 37 C38.27296875 35.74896484 38.27296875 35.74896484 37.53125 34.47265625 C28.30312632 18.9800563 17.13560995 7.71257161 0 1 C0 0.67 0 0.34 0 0 Z " fill="#00826B" transform="translate(413,82)"/>
<path d="M0 0 C12.88073676 -0.61827536 21.85535168 0.72386833 32.015625 9.13671875 C35.64927003 12.5486256 38.76528975 15.79372364 39.3125 20.9375 C39.209375 21.618125 39.10625 22.29875 39 23 C36.77011688 20.89399927 35.08678649 18.72514839 33.375 16.1875 C28.70943247 9.88550207 22.52997526 6.05196406 15 4 C12.35240178 3.71651979 9.77718557 3.49835747 7.125 3.375 C6.43664062 3.33632812 5.74828125 3.29765625 5.0390625 3.2578125 C3.35976754 3.16451834 1.67992233 3.08121762 0 3 C0 2.01 0 1.02 0 0 Z " fill="#01826D" transform="translate(148,118)"/>
<path d="M0 0 C0.33 0 0.66 0 1 0 C0.48984954 5.35657979 -0.08927043 10.68836169 -0.78637695 16.02416992 C-2.20472631 27.1364543 -2.63734108 37.8634817 -1 49 C-0.89248014 51.6793948 -0.9529179 54.31632049 -1 57 C-1.33 57 -1.66 57 -2 57 C-6.69386739 39.87297197 -6.98281695 19.19296298 -2 2 C-1.34 2 -0.68 2 0 2 C0 1.34 0 0.68 0 0 Z " fill="#017F6A" transform="translate(39,121)"/>
<path d="M0 0 C0.33 0 0.66 0 1 0 C1.33 23.76 1.66 47.52 2 72 C-5.92 72 -13.84 72 -22 72 C-22 71.34 -22 70.68 -22 70 C-14.74 70 -7.48 70 0 70 C0 46.9 0 23.8 0 0 Z " fill="#007964" transform="translate(564,151)"/>
<path d="M0 0 C17.1087684 -0.36487895 29.5949424 -0.14417036 42.5625 12.1875 C44.56640625 14.16796875 44.56640625 14.16796875 46 16 C46 16.99 46 17.98 46 19 C46.66 19 47.32 19 48 19 C49.76462683 22.08809695 50 23.23312136 50 27 C49.34 27 48.68 27 48 27 C47.69707031 26.41992188 47.39414062 25.83984375 47.08203125 25.2421875 C42.87782076 16.91503692 42.87782076 16.91503692 36 11 C36 10.34 36 9.68 36 9 C35.0409375 8.62875 35.0409375 8.62875 34.0625 8.25 C32.31888693 7.5383212 30.58262072 6.80588795 28.875 6.01171875 C28.111875 5.65722656 27.34875 5.30273438 26.5625 4.9375 C25.84191406 4.59589844 25.12132812 4.25429687 24.37890625 3.90234375 C19.0100876 1.8658953 13.30125251 1.75056637 7.625 1.4375 C6.88894531 1.39431641 6.15289063 1.35113281 5.39453125 1.30664062 C3.59651932 1.20156201 1.79828042 1.10037907 0 1 C0 0.67 0 0.34 0 0 Z " fill="#02826C" transform="translate(621,120)"/>
<path d="M0 0 C-1.94776685 1.48030281 -3.89500771 2.92986345 -5.9296875 4.2890625 C-14.65713608 10.28261152 -18.5834233 17.84613826 -21 28 C-21.66 27.67 -22.32 27.34 -23 27 C-22.65532373 19.76179827 -20.89785009 15.08409811 -17 9 C-16.34 9 -15.68 9 -15 9 C-14.814375 8.443125 -14.62875 7.88625 -14.4375 7.3125 C-11.08884296 1.92552997 -6.36931716 -0.776746 0 0 Z " fill="#03866F" transform="translate(144,122)"/>
<path d="M0 0 C2.88766287 1.44383143 3.00718603 3.24857471 4.0625 6.25 C4.40410156 7.20390625 4.74570312 8.1578125 5.09765625 9.140625 C7.0526497 15.33566918 7.18308866 21.11753421 7.1875 27.5625 C7.19974609 28.50802734 7.21199219 29.45355469 7.22460938 30.42773438 C7.22654297 31.33974609 7.22847656 32.25175781 7.23046875 33.19140625 C7.23457764 34.01842041 7.23868652 34.84543457 7.24291992 35.69750977 C6.97840015 38.20473181 6.25660609 39.83323384 5 42 C4.33989589 37.04921916 3.97614383 32.36844778 4.125 27.375 C4.21874964 19.27086485 2.42379256 11.50905357 0.40234375 3.6875 C0 2 0 2 0 0 Z " fill="#017E6B" transform="translate(429,124)"/>
<path d="M0 0 C0.33 0 0.66 0 1 0 C2.42106109 16.91893849 1.8250091 31.67187153 -3 48 C-3.99 48 -4.98 48 -6 48 C-5.80664062 47.23558594 -5.61328125 46.47117188 -5.4140625 45.68359375 C-1.72495815 30.50712983 -0.59967927 15.54431787 0 0 Z " fill="#007F68" transform="translate(274,146)"/>
<path d="M0 0 C0.33 0.66 0.66 1.32 1 2 C13.87 1.67 26.74 1.34 40 1 C40 1.99 40 2.98 40 4 C26.47 4 12.94 4 -1 4 C-0.67 2.68 -0.34 1.36 0 0 Z " fill="#179381" transform="translate(764,163)"/>
<path d="M0 0 C0.66 0 1.32 0 2 0 C7.35672911 14.97014475 6.39740685 30.3482842 6 46 C5.67 46 5.34 46 5 46 C4.97494385 45.37432129 4.9498877 44.74864258 4.92407227 44.10400391 C4.80824727 41.27745381 4.68546015 38.45124831 4.5625 35.625 C4.52318359 34.64015625 4.48386719 33.6553125 4.44335938 32.640625 C4.38051758 31.22910156 4.38051758 31.22910156 4.31640625 29.7890625 C4.27974854 28.91975098 4.24309082 28.05043945 4.20532227 27.15478516 C4.12598456 24.9516738 4.12598456 24.9516738 3 23 C2.71515493 21.60277502 2.4692804 20.19745239 2.24609375 18.7890625 C2.11396484 17.95632812 1.98183594 17.12359375 1.84570312 16.265625 C1.71099609 15.39421875 1.57628906 14.5228125 1.4375 13.625 C1.29892578 12.76132813 1.16035156 11.89765625 1.01757812 11.0078125 C0.4293175 7.25221758 0 3.81920569 0 0 Z " fill="#018875" transform="translate(270,121)"/>
<path d="M0 0 C0.99 0 1.98 0 3 0 C1 4 -1 8 -3 12 C-3.66 12 -4.32 12 -5 12 C-5.39832031 13.04220703 -5.39832031 13.04220703 -5.8046875 14.10546875 C-7.10603076 17.25676076 -8.58703383 20.27000171 -10.125 23.3125 C-10.66382813 24.38113281 -11.20265625 25.44976562 -11.7578125 26.55078125 C-12.37269531 27.76314453 -12.37269531 27.76314453 -13 29 C-13.66 28.67 -14.32 28.34 -15 28 C-12.61287341 17.80045911 -6.53784845 8.08340676 0 0 Z " fill="#02826D" transform="translate(59,77)"/>
<path d="M0 0 C3 1 3 1 4.359375 3.29296875 C4.81828125 4.24816406 5.2771875 5.20335937 5.75 6.1875 C8.49350159 11.49527946 11.33188406 14.35886957 16 18 C16 18.66 16 19.32 16 20 C16.928125 20.28875 17.85625 20.5775 18.8125 20.875 C22 22 22 22 25 24 C25 24.66 25 25.32 25 26 C17.46712555 24.93922089 11.22120293 19.98025746 6.625 14.0625 C0 4.40731534 0 4.40731534 0 0 Z " fill="#01836F" transform="translate(353,173)"/>
<path d="M0 0 C3.00617269 3.00617269 2.59585316 5.82381598 3 10 C0.62609164 11.18695418 -0.80244951 11.12075833 -3.44970703 11.11352539 C-4.37051056 11.11344986 -5.29131409 11.11337433 -6.24002075 11.11329651 C-7.73382767 11.10555458 -7.73382767 11.10555458 -9.2578125 11.09765625 C-10.27600067 11.0962413 -11.29418884 11.09482635 -12.3432312 11.09336853 C-15.60385035 11.087759 -18.86440151 11.07520488 -22.125 11.0625 C-24.33203026 11.05748623 -26.53906159 11.05292311 -28.74609375 11.04882812 C-34.16408581 11.03778648 -39.58203805 11.02103905 -45 11 C-45 10.67 -45 10.34 -45 10 C-22.725 9.505 -22.725 9.505 0 9 C0 6.03 0 3.06 0 0 Z " fill="#1A7F6A" transform="translate(649,151)"/>
<path d="M0 0 C6.53960953 5.42689985 10.02309248 17.76141326 11 26 C11.12298219 28.36301495 11.10077435 30.63180286 11 33 C10.67 33 10.34 33 10 33 C9.67 30.03 9.34 27.06 9 24 C8.34 24 7.68 24 7 24 C6.74476563 22.96552734 6.74476563 22.96552734 6.484375 21.91015625 C5.03793969 16.30137253 3.35830726 11.15990407 0.76953125 5.97265625 C0 4 0 4 0 0 Z " fill="#00806B" transform="translate(221,115)"/>
<path d="M0 0 C0.99 0 1.98 0 3 0 C2.03669392 5.26517749 0.32912907 10.14667042 -1.4375 15.1875 C-1.90639648 16.55938477 -1.90639648 16.55938477 -2.38476562 17.95898438 C-2.68962891 18.83232422 -2.99449219 19.70566406 -3.30859375 20.60546875 C-3.58501709 21.40106201 -3.86144043 22.19665527 -4.14624023 23.01635742 C-5 25 -5 25 -7 27 C-8.39208387 23.25208188 -7.5702662 20.94291849 -6.25 17.25 C-5.87746094 16.19425781 -5.50492188 15.13851562 -5.12109375 14.05078125 C-4.75113281 13.04402344 -4.38117187 12.03726563 -4 11 C-3.70222656 10.18917969 -3.40445313 9.37835938 -3.09765625 8.54296875 C-2.40738772 6.69195016 -1.7046766 4.84558158 -1 3 C-0.67 2.01 -0.34 1.02 0 0 Z " fill="#03866D" transform="translate(762,99)"/>
<path d="M0 0 C2.99254618 1.40191353 5.5954611 3.03367489 8.25 5 C8.95640625 5.515625 9.6628125 6.03125 10.390625 6.5625 C11.18726563 7.2740625 11.18726563 7.2740625 12 8 C12 8.66 12 9.32 12 10 C12.556875 10.20625 13.11375 10.4125 13.6875 10.625 C17.01603962 12.60413167 18.74304069 14.84025696 21 18 C20.67 18.99 20.34 19.98 20 21 C18.62437146 19.71034824 17.29233607 18.37310707 16 17 C16 16.34 16 15.68 16 15 C14.68 14.34 13.36 13.68 12 13 C12 12.34 12 11.68 12 11 C10.68 10.34 9.36 9.68 8 9 C8 8.34 8 7.68 8 7 C7.401875 6.896875 6.80375 6.79375 6.1875 6.6875 C3.67667019 5.89838206 2.71824704 4.95255346 1 3 C0.34 2.34 -0.32 1.68 -1 1 C-0.67 0.67 -0.34 0.34 0 0 Z " fill="#00895D" transform="translate(197,90)"/>
<path d="M0 0 C0.33 0 0.66 0 1 0 C0.96519531 1.51013672 0.96519531 1.51013672 0.9296875 3.05078125 C0.75870986 14.1656638 1.64436566 24.97336709 3 36 C-2.27722826 28.0841576 -3.31615659 14.87326217 -1.54296875 5.61328125 C-1.08550556 3.72747975 -0.55127191 1.86054271 0 0 Z " fill="#007C68" transform="translate(326,138)"/>
<path d="M0 0 C0.825 -0.01224609 1.65 -0.02449219 2.5 -0.03710938 C7.60347494 -0.04926051 11.79066604 0.53913546 16.625 2.1875 C16.295 2.8475 15.965 3.5075 15.625 4.1875 C14.75536621 4.02451416 13.88573242 3.86152832 12.98974609 3.69360352 C9.85276422 3.22175883 6.95595346 3.07281745 3.7890625 3.08984375 C2.19384766 3.09467773 2.19384766 3.09467773 0.56640625 3.09960938 C-1.07521484 3.11217773 -1.07521484 3.11217773 -2.75 3.125 C-3.86761719 3.12951172 -4.98523438 3.13402344 -6.13671875 3.13867188 C-8.88286804 3.15040756 -11.62890586 3.16682637 -14.375 3.1875 C-14.375 2.5275 -14.375 1.8675 -14.375 1.1875 C-9.59214918 -0.03261501 -4.90141618 0.00379367 0 0 Z " fill="#139574" transform="translate(628.375,117.8125)"/>
<path d="M0 0 C1.010625 -0.01224609 2.02125 -0.02449219 3.0625 -0.03710938 C4.031875 -0.03904297 5.00125 -0.04097656 6 -0.04296875 C6.886875 -0.04707764 7.77375 -0.05118652 8.6875 -0.05541992 C11 0.1875 11 0.1875 14 2.1875 C8.36079822 2.9858015 2.88042952 3.36997535 -2.8125 3.375 C-3.93688477 3.39336914 -3.93688477 3.39336914 -5.08398438 3.41210938 C-8.92752228 3.42241377 -10.72710907 3.36942729 -14 1.1875 C-9.40280508 -0.34489831 -4.81473965 0.00307062 0 0 Z " fill="#016852" transform="translate(156,76.8125)"/>
<path d="M0 0 C0.70703125 1.5546875 0.70703125 1.5546875 1 4 C-0.00871367 6.50299724 -1.05104676 8.75825021 -2.3125 11.125 C-2.63412109 11.75792969 -2.95574219 12.39085937 -3.28710938 13.04296875 C-4.65757673 15.69385222 -5.87826936 17.87826936 -8 20 C-8.99 20 -9.98 20 -11 20 C-9.38102741 16.69918209 -7.64075691 13.47442567 -5.875 10.25 C-5.06675781 8.77273437 -5.06675781 8.77273437 -4.2421875 7.265625 C-3.83226562 6.51796875 -3.42234375 5.7703125 -3 5 C-2.34 5 -1.68 5 -1 5 C-0.67 3.35 -0.34 1.7 0 0 Z " fill="#058A6D" transform="translate(433,167)"/>
<path d="M0 0 C0.5775 0.763125 1.155 1.52625 1.75 2.3125 C5.44209342 6.74404123 5.44209342 6.74404123 10.796875 8.29296875 C12.25867188 8.24076172 12.25867188 8.24076172 13.75 8.1875 C14.73484375 8.16042969 15.7196875 8.13335937 16.734375 8.10546875 C17.48203125 8.07066406 18.2296875 8.03585938 19 8 C19.33 8.66 19.66 9.32 20 10 C14.99304215 11.75184341 11.15984316 12.51724422 6.125 10.5 C2.92899433 8.85729779 1.9718367 7.95858338 -0.125 4.875 C-1 2 -1 2 0 0 Z " fill="#00735E" transform="translate(685,213)"/>
<path d="M0 0 C0.33 0 0.66 0 1 0 C1.36901501 9.88140184 0.71667939 18.41076859 -2 28 C-2.33 27.34 -2.66 26.68 -3 26 C-3.66 25.67 -4.32 25.34 -5 25 C-4.01 20.71 -3.02 16.42 -2 12 C-1.34 12 -0.68 12 0 12 C0 8.04 0 4.08 0 0 Z " fill="#01826A" transform="translate(232,149)"/>
<path d="M0 0 C0 0.99 0 1.98 0 3 C-2.01171875 4.75390625 -2.01171875 4.75390625 -4.6875 6.5625 C-5.55761719 7.16191406 -6.42773438 7.76132813 -7.32421875 8.37890625 C-13.65990239 12.21731313 -13.65990239 12.21731313 -17.3125 11.625 C-17.869375 11.41875 -18.42625 11.2125 -19 11 C-18.34 11 -17.68 11 -17 11 C-17 10.34 -17 9.68 -17 9 C-16.41992188 8.76925781 -15.83984375 8.53851563 -15.2421875 8.30078125 C-10.98424504 6.52312541 -3.95617727 0 0 0 Z " fill="#008168" transform="translate(662,211)"/>
<path d="M0 0 C2.3203125 0.21484375 2.3203125 0.21484375 5 1 C7.86939801 4.5555584 9.92051265 8.84001779 10.08984375 13.44140625 C9.8125 15.625 9.8125 15.625 9 19 C8.67 19 8.34 19 8 19 C7.84144531 18.29875 7.68289063 17.5975 7.51953125 16.875 C5.93869751 10.44685838 3.88886945 5.36448789 0 0 Z " fill="#01876A" transform="translate(555,131)"/>
<path d="M0 0 C-0.8353125 0.32871094 -0.8353125 0.32871094 -1.6875 0.6640625 C-7.46337205 3.06417149 -12.16390222 6.04678655 -17 10 C-17.66 9.67 -18.32 9.34 -19 9 C-15.59444513 4.45926017 -12.5727668 0.68257078 -6.9375 -0.8125 C-4.23814748 -0.9847991 -2.55421981 -0.7195759 0 0 Z " fill="#078970" transform="translate(520,122)"/>
<path d="M0 0 C2.45840605 -0.02691685 4.91651882 -0.04679802 7.375 -0.0625 C8.07367188 -0.07087891 8.77234375 -0.07925781 9.4921875 -0.08789062 C14.7734375 -0.11328125 14.7734375 -0.11328125 17 1 C17 1.66 17 2.32 17 3 C11.39 3 5.78 3 0 3 C0 2.01 0 1.02 0 0 Z " fill="#088D6D" transform="translate(148,118)"/>
<path d="M0 0 C0.66 0.33 1.32 0.66 2 1 C0.83348574 6.92863717 -0.75519358 12.38798394 -3 18 C-4.1484375 16.453125 -4.1484375 16.453125 -5 14 C-4.33168497 11.43134571 -3.60698344 9.19008007 -2.625 6.75 C-2.3775 6.1003125 -2.13 5.450625 -1.875 4.78125 C-1.26360986 3.18222963 -0.63359041 1.59035444 0 0 Z " fill="#02846C" transform="translate(749,136)"/>
<path d="M0 0 C0.33 0.66 0.66 1.32 1 2 C2.99117408 2.69258229 4.9921136 3.35747635 7 4 C7.99 4.66 8.98 5.32 10 6 C11.65549531 6.38499891 13.3222433 6.72793135 15 7 C15 7.99 15 8.98 15 10 C8.35844129 9.16980516 2.3559098 6.08189476 -2 1 C-1.34 0.67 -0.68 0.34 0 0 Z " fill="#02806E" transform="translate(128,220)"/>
<path d="M0 0 C0 4.95 0 9.9 0 15 C-0.99 15 -1.98 15 -3 15 C-3 10.38 -3 5.76 -3 1 C-1 0 -1 0 0 0 Z " fill="#009F55" transform="translate(352,144)"/>
<path d="M0 0 C2.48659621 2.48659621 3.0343111 4.60483946 4.125 7.9375 C4.47820313 8.99839844 4.83140625 10.05929688 5.1953125 11.15234375 C6 14 6 14 6 17 C3 16 3 16 2.05078125 14.1796875 C0.46995165 9.24482262 -0.33070393 5.18102823 0 0 Z " fill="#01816D" transform="translate(798,147)"/>
<path d="M0 0 C1 2 1 2 0.29296875 4.35546875 C-0.07183594 5.29003906 -0.43664062 6.22460938 -0.8125 7.1875 C-2.42539926 11.42903439 -3.83135503 15.61758137 -5 20 C-6.125 18.5 -6.125 18.5 -7 16 C-6.57598348 13.2226918 -5.81108065 10.70360217 -5 8 C-4.34 8 -3.68 8 -3 8 C-2.814375 6.8553125 -2.814375 6.8553125 -2.625 5.6875 C-2 3 -2 3 0 0 Z " fill="#03816E" transform="translate(333,117)"/>
<path d="M0 0 C0.99 0 1.98 0 3 0 C3.6987693 1.76641683 4.38366583 3.53832664 5.0625 5.3125 C5.44535156 6.29863281 5.82820312 7.28476563 6.22265625 8.30078125 C7 11 7 11 6 14 C3.07413567 12.53706784 2.94053412 10.59729902 1.875 7.5625 C1.34519531 6.07943359 1.34519531 6.07943359 0.8046875 4.56640625 C0 2 0 2 0 0 Z " fill="#008668" transform="translate(802,94)"/>
<path d="M0 0 C2.22941405 0.31073024 4.45852212 0.62365625 6.6875 0.9375 C7.92886719 1.11152344 9.17023438 1.28554688 10.44921875 1.46484375 C13.32474548 1.89822897 16.15644813 2.39649282 19 3 C19 3.33 19 3.66 19 4 C5.18223235 4.55353075 5.18223235 4.55353075 0 1 C0 0.67 0 0.34 0 0 Z " fill="#007861" transform="translate(125,271)"/>
<path d="M0 0 C0.99 0.33 1.98 0.66 3 1 C3 5.29 3 9.58 3 14 C-0.06188727 9.91748364 -0.37243503 9.43502071 -0.1875 4.75 C-0.16042969 3.85796875 -0.13335937 2.9659375 -0.10546875 2.046875 C-0.07066406 1.37140625 -0.03585938 0.6959375 0 0 Z " fill="#00975A" transform="translate(120,149)"/>
<path d="M0 0 C12.66970387 -0.3690205 12.66970387 -0.3690205 18 2 C14.66696848 4.067714 12.79091391 4.10526716 9 3.25 C7.7315625 2.97929687 7.7315625 2.97929687 6.4375 2.703125 C4.10268399 2.02962038 2.12760344 1.16230188 0 0 Z " fill="#007759" transform="translate(622,137)"/>
<path d="M0 0 C1.93938819 2.90908228 2.96774957 5.40862379 4.125 8.6875 C4.47820313 9.68136719 4.83140625 10.67523438 5.1953125 11.69921875 C5.46085938 12.45847656 5.72640625 13.21773437 6 14 C5.01 14 4.02 14 3 14 C0.56574762 9.03006806 -0.34615998 5.65394631 0 0 Z " fill="#00816B" transform="translate(819,207)"/>
<path d="M0 0 C0.99 0.33 1.98 0.66 3 1 C-0.42388092 4.82669043 -3.00724943 6.72278474 -8 8 C-6.49860488 3.79609368 -3.82724957 2.10889262 0 0 Z " fill="#058473" transform="translate(416,191)"/>
<path d="M0 0 C0.66 0.66 1.32 1.32 2 2 C0.73046875 3.49739583 -0.5390625 4.99479167 -1.80859375 6.4921875 C-3.0878152 8.00594079 -3.0878152 8.00594079 -4 10 C-4.99 9.67 -5.98 9.34 -7 9 C-5.20578369 4.9630133 -3.79448125 2.35519526 0 0 Z " fill="#038768" transform="translate(690,197)"/>
<path d="M0 0 C0.33 0 0.66 0 1 0 C1 1.65 1 3.3 1 5 C1.66 5 2.32 5 3 5 C3.33 7.97 3.66 10.94 4 14 C3.01 14.495 3.01 14.495 2 15 C0.2520497 9.75614911 -0.19392201 5.52677733 0 0 Z " fill="#018672" transform="translate(36,173)"/>
<path d="M0 0 C3.63 1.32 7.26 2.64 11 4 C11 4.99 11 5.98 11 7 C9.37276701 6.54965877 7.74826336 6.08944646 6.125 5.625 C5.22007812 5.36976562 4.31515625 5.11453125 3.3828125 4.8515625 C1 4 1 4 -1 2 C-0.67 1.34 -0.34 0.68 0 0 Z " fill="#018764" transform="translate(190,34)"/>
<path d="M0 0 C0.33 0 0.66 0 1 0 C1.56561146 5.65611463 -0.28608722 9.22642128 -3 14 C-3.33 14 -3.66 14 -4 14 C-4.56561146 8.34388537 -2.71391278 4.77357872 0 0 Z " fill="#008A62" transform="translate(266,199)"/>
<path d="M0 0 C1.2380014 3.57644848 0.74926071 6.33694766 0 10 C-0.33 10 -0.66 10 -1 10 C-1.33 12.64 -1.66 15.28 -2 18 C-2.33 18 -2.66 18 -3 18 C-3.55353075 5.33029613 -3.55353075 5.33029613 0 0 Z " fill="#00816A" transform="translate(501,151)"/>
<path d="M0 0 C5.26053037 -0.31563182 8.44573816 0.33409063 13 3 C13 3.99 13 4.98 13 6 C12.34 5.731875 11.68 5.46375 11 5.1875 C7.35060933 3.74294953 3.67754567 2.37128822 0 1 C0 0.67 0 0.34 0 0 Z " fill="#04816E" transform="translate(538,121)"/>
<path d="M0 0 C-0.33 1.65 -0.66 3.3 -1 5 C-1.66 5 -2.32 5 -3 5 C-3.33 5.99 -3.66 6.98 -4 8 C-4.33 7.34 -4.66 6.68 -5 6 C-4.0625 3.875 -4.0625 3.875 -3 2 C-4.32 1.34 -5.64 0.68 -7 0 C-4.3333581 -1.33332095 -2.83319697 -0.67102033 0 0 Z " fill="#028668" transform="translate(673,194)"/>
<path d="M0 0 C0.33 0.66 0.66 1.32 1 2 C1.99 2.33 2.98 2.66 4 3 C5.6875 6.5625 5.6875 6.5625 7 10 C6.01 10 5.02 10 4 10 C0 3.375 0 3.375 0 0 Z " fill="#02806E" transform="translate(604,187)"/>
<path d="M0 0 C2.00809017 0.01068133 4.01421852 0.16016904 6.015625 0.32421875 C3.015625 2.32421875 3.015625 2.32421875 0.015625 3.32421875 C-1.35633074 4.61777702 -2.69620156 5.94720577 -3.984375 7.32421875 C-4.314375 6.66421875 -4.644375 6.00421875 -4.984375 5.32421875 C-3.93653829 2.39027595 -3.25458095 0.5317524 0 0 Z " fill="#04876E" transform="translate(652.984375,188.67578125)"/>
<path d="M0 0 C5.24099655 0.41105855 8.24039194 1.24039194 12 5 C12 5.66 12 6.32 12 7 C7.69235185 5.43358249 3.93828536 3.31663844 0 1 C0 0.67 0 0.34 0 0 Z " fill="#008366" transform="translate(210,45)"/>
<path d="M0 0 C0.33 0 0.66 0 1 0 C1.22224251 2.58281836 1.42823488 5.16522187 1.625 7.75 C1.68945312 8.47960937 1.75390625 9.20921875 1.8203125 9.9609375 C2.10381649 13.85911736 2.27081383 16.70645322 0 20 C-1.01593448 13.11422188 -0.83854735 6.90188971 0 0 Z " fill="#088271" transform="translate(434,146)"/>
<path d="M0 0 C2.74277578 3.19990508 4.6302836 6.00499382 6 10 C5.01 10 4.02 10 3 10 C-0.22265625 4.82421875 -0.22265625 4.82421875 -1 3 C-0.67 2.01 -0.34 1.02 0 0 Z " fill="#018C65" transform="translate(449,109)"/>
<path d="M0 0 C0.66 0.99 1.32 1.98 2 3 C1.38125 3.9075 0.7625 4.815 0.125 5.75 C-1.44389611 8.14948817 -2.80443821 10.40961612 -4 13 C-5 11 -5 11 -4.25 7.625 C-3.15168868 4.43989717 -2.19279221 2.49180933 0 0 Z " fill="#009261" transform="translate(92,109)"/>
<path d="M0 0 C2.12691797 0.44934887 4.25150039 0.90976473 6.375 1.375 C7.55835938 1.63023438 8.74171875 1.88546875 9.9609375 2.1484375 C13 3 13 3 15 5 C9.72684667 4.5547115 4.98229776 3.91626837 0 2 C0 1.34 0 0.68 0 0 Z " fill="#05906E" transform="translate(403,78)"/>
<path d="M0 0 C3.00617269 3.00617269 2.59585316 5.82381598 3 10 C1.02 10 -0.96 10 -3 10 C-2.01 9.67 -1.02 9.34 0 9 C0 6.03 0 3.06 0 0 Z " fill="#04816E" transform="translate(649,151)"/>
<path d="M0 0 C2.0625 0.4375 2.0625 0.4375 4 1 C4 1.66 4 2.32 4 3 C4.99 3 5.98 3 7 3 C7 3.66 7 4.32 7 5 C5.02 5 3.04 5 1 5 C0.34 3.68 -0.32 2.36 -1 1 C-0.67 0.67 -0.34 0.34 0 0 Z " fill="#039362" transform="translate(121,216)"/>
<path d="M0 0 C1.39195915 4.17587745 -0.17676781 6.13474776 -2 10 C-2.99 10 -3.98 10 -5 10 C-3.14285714 2.42857143 -3.14285714 2.42857143 0 0 Z " fill="#018968" transform="translate(743,158)"/>
<path d="M0 0 C0.66 0.33 1.32 0.66 2 1 C3.37634409 7.99641577 3.37634409 7.99641577 2.0625 11.5 C1.711875 11.995 1.36125 12.49 1 13 C-0.20504323 10.58991354 -0.35524446 8.61578712 -0.625 5.9375 C-0.76808594 4.58978516 -0.76808594 4.58978516 -0.9140625 3.21484375 C-0.94242187 2.48394531 -0.97078125 1.75304687 -1 1 C-0.67 0.67 -0.34 0.34 0 0 Z " fill="#018B67" transform="translate(273,133)"/>
<path d="M0 0 C3.3 0.99 6.6 1.98 10 3 C10 3.99 10 4.98 10 6 C6.05879291 5.43697042 3.2491277 4.3208055 0 2 C0 1.34 0 0.68 0 0 Z " fill="#028668" transform="translate(611,199)"/>
<path d="M0 0 C0.99 0.495 0.99 0.495 2 1 C2.44921875 2.92578125 2.44921875 2.92578125 2.6875 5.3125 C2.77386719 6.09238281 2.86023438 6.87226563 2.94921875 7.67578125 C2.99984424 9.99287105 2.67173402 11.79287394 2 14 C0.4087311 9.126739 -0.21192221 5.19209404 0 0 Z " fill="#027B65" transform="translate(350,158)"/>
<path d="M0 0 C4.42857143 5.14285714 4.42857143 5.14285714 5 9 C2.09303901 7.93411431 1.15567038 7.29651501 -0.3125 4.5 C-1 2 -1 2 0 0 Z " fill="#007D6B" transform="translate(685,213)"/>
<path d="M0 0 C2.03833424 1.2739589 4.03852126 2.61061923 6 4 C6 4.66 6 5.32 6 6 C6.66 6.33 7.32 6.66 8 7 C4.62537285 6.45276317 2.91765 5.9451 0 4 C0 2.68 0 1.36 0 0 Z " fill="#009065" transform="translate(363,187)"/>
<path d="M0 0 C0.99 0 1.98 0 3 0 C2.01 3.3 1.02 6.6 0 10 C-0.66 9.01 -1.32 8.02 -2 7 C-1.125 3.3125 -1.125 3.3125 0 0 Z " fill="#02806B" transform="translate(41,110)"/>
<path d="M0 0 C0.33 0.66 0.66 1.32 1 2 C0.06421005 4.35981813 -0.93347808 6.69631264 -2 9 C-2.66 9 -3.32 9 -4 9 C-4.33 9.66 -4.66 10.32 -5 11 C-4.67 9.02 -4.34 7.04 -4 5 C-3.34 5 -2.68 5 -2 5 C-1.34 3.35 -0.68 1.7 0 0 Z " fill="#018573" transform="translate(768,154)"/>
<path d="M0 0 C0.33 0 0.66 0 1 0 C1 2.31 1 4.62 1 7 C0.34 7 -0.32 7 -1 7 C-1.66 8.32 -2.32 9.64 -3 11 C-2.69217504 9.35328588 -2.37860766 7.70764424 -2.0625 6.0625 C-1.88847656 5.14597656 -1.71445312 4.22945312 -1.53515625 3.28515625 C-1 1 -1 1 0 0 Z " fill="#058977" transform="translate(744,151)"/>
<path d="M0 0 C1.32 0.66 2.64 1.32 4 2 C3.01 2.495 3.01 2.495 2 3 C1.59270772 5.32156597 1.25561323 7.6568787 1 10 C-0.85064319 6.87703962 -1.29356154 4.62059232 -1 1 C-0.67 0.67 -0.34 0.34 0 0 Z " fill="#028570" transform="translate(603,176)"/>
<path d="M0 0 C1.80125336 2.70188004 3.00243753 4.93057703 4 8 C3.67 8.99 3.34 9.98 3 11 C3 10.34 3 9.68 3 9 C2.34 9 1.68 9 1 9 C-0.4783226 6.04335481 -0.06032783 3.25770263 0 0 Z " fill="#007C6A" transform="translate(794,135)"/>
<path d="M0 0 C3.26954202 0.56371414 4.82575883 1.49962266 7 4 C6.67 4.99 6.34 5.98 6 7 C4.62437146 5.71034824 3.29233607 4.37310707 2 3 C2 2.34 2 1.68 2 1 C1.34 0.67 0.68 0.34 0 0 Z " fill="#007E6C" transform="translate(211,104)"/>
<path d="M0 0 C0.66 0.33 1.32 0.66 2 1 C1.319375 1.5878125 1.319375 1.5878125 0.625 2.1875 C-1.27642919 4.30832487 -2.06204028 6.33042235 -3 9 C-3.99 9 -4.98 9 -6 9 C-4.47291037 5.56404834 -2.40072955 2.88087546 0 0 Z " fill="#038876" transform="translate(66,69)"/>
<path d="M0 0 C2.45484649 2.13464912 3.68134222 3.70720291 4 7 C3.34 7.66 2.68 8.32 2 9 C0.50178941 5.62902617 0 3.79557881 0 0 Z " fill="#01806C" transform="translate(809,111)"/>
<path d="M0 0 C0.99 0.33 1.98 0.66 3 1 C3 1.66 3 2.32 3 3 C4.32 3.33 5.64 3.66 7 4 C6.67 4.66 6.34 5.32 6 6 C4 5 2 4 0 3 C0 2.01 0 1.02 0 0 Z " fill="#01846D" transform="translate(224,52)"/>
<path d="M0 0 C-1.125 1.5 -1.125 1.5 -3 3 C-6.1875 3.1875 -6.1875 3.1875 -9 3 C-6.38997624 -0.48003168 -4.1689578 -0.27793052 0 0 Z " fill="#0B8A78" transform="translate(150,119)"/>
<path d="M0 0 C0.99 0.33 1.98 0.66 3 1 C3.33 3.31 3.66 5.62 4 8 C1.10067643 5.60490662 0.49831724 3.68754757 0 0 Z " fill="#009260" transform="translate(217,110)"/>
<path d="M0 0 C2.31 0.66 4.62 1.32 7 2 C6.67 2.99 6.34 3.98 6 5 C3.36 4.01 0.72 3.02 -2 2 C-1.34 1.34 -0.68 0.68 0 0 Z " fill="#008B59" transform="translate(182,82)"/>
<path d="M0 0 C-0.99 0.495 -0.99 0.495 -2 1 C-2 1.66 -2 2.32 -2 3 C-4.64 3 -7.28 3 -10 3 C-6.68152292 -0.06320961 -4.44849969 -0.3033068 0 0 Z " fill="#048876" transform="translate(125,34)"/>
</svg>
