<?xml version="1.0" encoding="UTF-8"?>
<svg version="1.1" xmlns="http://www.w3.org/2000/svg" width="1536" height="1024">
<path d="M0 0 C57.73026681 2.41094061 112.82744644 13.15309232 158 52 C159.09167322 52.90978456 160.18419011 53.81855729 161.27734375 54.7265625 C174.03669823 65.39789522 185.02555161 76.68886538 195 90 C195.93873392 91.23182278 196.87753651 92.46359323 197.81640625 93.6953125 C214.13073879 115.28647997 226.13519981 139.76433618 233 166 C233.33354492 167.26408691 233.33354492 167.26408691 233.67382812 168.55371094 C248.53727507 226.16544759 242.30234143 288.69339601 212.25 340.5 C204.14501921 354.1154893 194.86899094 366.68573819 184.328125 378.50439453 C183.12089012 379.86386528 181.93423532 381.24154184 180.75 382.62109375 C177.0353646 386.92339607 173.17076267 390.76238765 168.82421875 394.42578125 C167.16133172 395.86077798 165.64092162 397.3504501 164.125 398.9375 C162 401 162 401 160 401 C160 401.66 160 402.32 160 403 C158.54150391 404.33764648 158.54150391 404.33764648 156.4765625 405.87109375 C155.32957886 406.72453369 155.32957886 406.72453369 154.15942383 407.59521484 C153.32306396 408.20316895 152.4867041 408.81112305 151.625 409.4375 C150.76737061 410.06350098 149.90974121 410.68950195 149.02612305 411.33447266 C99.42704899 447.08655116 39.80104253 461.2514029 -20.70214844 451.78198242 C-45.52977034 447.47022966 -45.52977034 447.47022966 -49 444 C-49.12536856 440.95670813 -49.18612443 437.93502627 -49.20532227 434.89038086 C-49.21522186 433.93438492 -49.22512146 432.97838898 -49.23532104 431.99342346 C-49.26703852 428.81725586 -49.29173381 425.64107327 -49.31640625 422.46484375 C-49.33696694 420.26908467 -49.35796316 418.07332964 -49.37937927 415.87757874 C-49.43469139 410.08583842 -49.48406022 404.29406186 -49.53222656 398.5022583 C-49.58237503 392.59717566 -49.63809575 386.69214596 -49.69335938 380.78710938 C-49.80105267 369.19145142 -49.90247267 357.5957476 -50 346 C-45.05212654 347.90530368 -40.62490861 350.46251489 -36.08398438 353.16601562 C-33.10802769 354.90654813 -30.43170066 356.44373929 -27 357 C-27 357.66 -27 358.32 -27 359 C-26.30132813 359.12503906 -25.60265625 359.25007813 -24.8828125 359.37890625 C-21.79690138 360.04375702 -18.87627324 360.96042702 -15.875 361.9375 C15.44328082 371.5738941 49.83061008 367.34582536 79 353 C79.63196289 352.69223633 80.26392578 352.38447266 80.91503906 352.06738281 C100.25969552 342.42112555 124.8268346 323.02354918 133.08203125 302.28125 C134 300 134 300 135.42919922 298.5871582 C143.05381419 290.88314484 146.66626053 276.8510762 149.4375 266.6875 C149.67186768 265.83051514 149.90623535 264.97353027 150.14770508 264.09057617 C153.64772061 250.4331458 154.27362643 237.12673167 154.125 223.125 C154.1149383 221.45443252 154.10581815 219.78385909 154.09765625 218.11328125 C154.07592258 214.07537022 154.04157357 210.03775348 154 206 C153.34 205.67 152.68 205.34 152 205 C151.70898438 202.90478516 151.70898438 202.90478516 151.59375 200.1640625 C151.12239038 193.8677545 149.54354172 188.3266572 147.5 182.375 C147.14470215 181.33102051 146.7894043 180.28704102 146.42333984 179.21142578 C139.84689035 160.51547836 129.28202875 142.86647201 115 129 C114.23042969 128.24460937 113.46085937 127.48921875 112.66796875 126.7109375 C84.43711301 100.12502926 47.64612801 87.54149922 9.1484375 88 C-25.40590633 89.16080083 -59.25697559 102.65834531 -84 127 C-85.72798652 128.95674719 -87.35862874 130.96823314 -89 133 C-89.804375 133.78375 -90.60875 134.5675 -91.4375 135.375 C-119.18251127 163.79671886 -126.54103411 204.871742 -126.13671875 243.00390625 C-126.01702628 250.2560425 -125.76433609 257.50192314 -125.5 264.75 C-123.84057729 311.19611953 -126.75520837 357.6136546 -129 404 C-134.40164662 400.13592697 -139.28067971 396.04495464 -143.9375 391.3125 C-144.54231201 390.70237061 -145.14712402 390.09224121 -145.77026367 389.46362305 C-150.87626256 384.25007212 -155.49105077 378.73558645 -160 373 C-161.53959927 371.14411633 -163.08128321 369.28996015 -164.625 367.4375 C-168.68976832 362.45306908 -172.44827831 357.36108935 -176 352 C-176.36174316 351.46375 -176.72348633 350.9275 -177.09619141 350.375 C-210.26620185 300.90295779 -219.55073878 240.22895363 -208.73876953 182.19335938 C-205.12350785 163.99037062 -199.8317865 145.26813823 -190.8828125 128.91796875 C-189.79094031 126.89770206 -189.79094031 126.89770206 -190 124 C-189.58363281 123.5875 -189.16726563 123.175 -188.73828125 122.75 C-186.73172516 120.72991656 -185.56931697 118.51771584 -184.24902344 116.01342773 C-171.25097394 91.35958361 -151.77439502 69.22657834 -130 52 C-127.99239213 50.39994778 -125.98647223 48.79780398 -123.98120117 47.19482422 C-122.63914828 46.12291338 -121.29560555 45.05286467 -119.95043945 43.98486328 C-117.53857775 42.06512137 -115.18176288 40.18176288 -113 38 C-111.67804894 37.31103873 -110.34276453 36.64746092 -109 36 C-107.40933792 35.09119727 -105.82523023 34.17087272 -104.24609375 33.2421875 C-93.95539976 27.26115687 -83.78644489 21.68031169 -72.67749023 17.36083984 C-68.61388121 16.07040513 -68.61388121 16.07040513 -66 13 C-64.38171215 12.75532518 -62.76141986 12.52051025 -61.13574219 12.33105469 C-57.02805304 11.6943347 -53.09559967 10.32928503 -49.125 9.125 C-32.96578896 4.36812073 -16.87526535 1.71125972 0 2 C0 1.34 0 0.68 0 0 Z " fill="#00A68D" transform="translate(754,283)"/>
<path d="M0 0 C13.00042385 9.79971159 21.84200011 23.83071229 24.9453125 39.8515625 C27.42682193 58.77307192 22.94727893 76.58671063 11.3203125 91.8125 C-0.44164957 105.4430012 -15.88667905 114.10012683 -34.00390625 115.4375 C-50.83830589 116.00040573 -67.16316531 111.43262202 -79.8671875 100 C-89.75157551 90.68357055 -100.14043105 77.39127659 -100.7421875 63.25 C-100.7009375 62.569375 -100.6596875 61.88875 -100.6171875 61.1875 C-101.2771875 60.8575 -101.9371875 60.5275 -102.6171875 60.1875 C-101.98181624 38.01523397 -98.78105488 20.70174023 -82.6171875 4.1875 C-59.11617206 -16.290986 -25.42065393 -17.60475138 0 0 Z " fill="#04A88C" transform="translate(806.6171875,459.8125)"/>
<path d="M0 0 C0.33 0 0.66 0 1 0 C0.82764768 37.57280591 -26.63578292 78.55458661 -50.671875 105.50439453 C-51.87910988 106.86386528 -53.06576468 108.24154184 -54.25 109.62109375 C-57.9646354 113.92339607 -61.82923733 117.76238765 -66.17578125 121.42578125 C-67.83866828 122.86077798 -69.35907838 124.3504501 -70.875 125.9375 C-73 128 -73 128 -75 128 C-75 128.66 -75 129.32 -75 130 C-76.45849609 131.33764648 -76.45849609 131.33764648 -78.5234375 132.87109375 C-79.28809326 133.44005371 -80.05274902 134.00901367 -80.84057617 134.59521484 C-81.67693604 135.20316895 -82.5132959 135.81112305 -83.375 136.4375 C-84.66144409 137.37650146 -84.66144409 137.37650146 -85.97387695 138.33447266 C-125.33828914 166.70918694 -169.60059118 181.34382494 -218.1875 181.375 C-219.00621582 181.37699402 -219.82493164 181.37898804 -220.66845703 181.38104248 C-249.44036433 181.37309045 -249.44036433 181.37309045 -256 177 C-254.4584364 176.97258088 -252.91672526 176.95341752 -251.375 176.9375 C-250.51648438 176.92589844 -249.65796875 176.91429687 -248.7734375 176.90234375 C-246 177 -246 177 -243.41162109 177.49560547 C-239.13152244 178.12840093 -234.96109558 178.16233318 -230.640625 178.16796875 C-229.28574982 178.17296135 -229.28574982 178.17296135 -227.90350342 178.17805481 C-225.99052435 178.18310651 -224.07753651 178.18546368 -222.16455078 178.18530273 C-219.30094913 178.18746159 -216.43775092 178.20555875 -213.57421875 178.22460938 C-197.52622882 178.2759073 -182.04293068 177.19228889 -166.4375 173.25 C-165.37523193 172.98687012 -164.31296387 172.72374023 -163.21850586 172.45263672 C-154.25518246 170.17500978 -145.5726516 167.46650299 -137 164 C-136.28859863 163.71431152 -135.57719727 163.42862305 -134.84423828 163.13427734 C-99.41166927 148.67853892 -67.64056422 124.02880619 -44 94 C-42.83017578 92.57300781 -42.83017578 92.57300781 -41.63671875 91.1171875 C-20.40329018 64.63466574 -7.36004053 32.92649712 0 0 Z " fill="#04765F" transform="translate(989,556)"/>
<path d="M0 0 C0 0.33 0 0.66 0 1 C-0.57218262 1.06993164 -1.14436523 1.13986328 -1.73388672 1.21191406 C-29.01548654 4.59964716 -54.14963043 11.00069721 -79 23 C-80.07894531 23.51820313 -81.15789062 24.03640625 -82.26953125 24.5703125 C-97.11621171 32.15565117 -111.55782938 41.9029289 -124 53 C-124.94488281 53.83660156 -125.88976562 54.67320312 -126.86328125 55.53515625 C-129.95685841 58.30665407 -132.98815677 61.140109 -136 64 C-136.53415527 64.50547363 -137.06831055 65.01094727 -137.61865234 65.53173828 C-145.38015477 72.9288076 -152.31591893 80.67288123 -158.71337891 89.27783203 C-159.93861575 90.91783596 -161.19322322 92.53577534 -162.44921875 94.15234375 C-179.25216885 116.19776017 -189.02748897 141.75333644 -197 168 C-197.33 168 -197.66 168 -198 168 C-197.48432944 160.74324473 -195.76380424 154.51904069 -193.3125 147.6875 C-192.95671875 146.67655273 -192.6009375 145.66560547 -192.234375 144.62402344 C-189.91968745 138.17981715 -187.36292555 132.09930233 -184.03125 126.109375 C-182.78039493 123.94213531 -182.78039493 123.94213531 -183 121 C-182.58363281 120.5875 -182.16726563 120.175 -181.73828125 119.75 C-179.73172516 117.72991656 -178.56931697 115.51771584 -177.24902344 113.01342773 C-164.25097394 88.35958361 -144.77439502 66.22657834 -123 49 C-120.99239213 47.39994778 -118.98647223 45.79780398 -116.98120117 44.19482422 C-115.63914828 43.12291338 -114.29560555 42.05286467 -112.95043945 40.98486328 C-110.53857775 39.06512137 -108.18176288 37.18176288 -106 35 C-104.67804894 34.31103873 -103.34276453 33.64746092 -102 33 C-100.40933792 32.09119727 -98.82523023 31.17087272 -97.24609375 30.2421875 C-86.95539976 24.26115687 -76.78644489 18.68031169 -65.67749023 14.36083984 C-61.61388121 13.07040513 -61.61388121 13.07040513 -59 10 C-57.38171215 9.75532518 -55.76141986 9.52051025 -54.13574219 9.33105469 C-50.02791724 8.69431365 -46.09592941 7.32857735 -42.125 6.125 C-28.00138899 1.99156149 -14.76954981 -0.63197757 0 0 Z " fill="#037C67" transform="translate(747,286)"/>
<path d="M0 0 C7.26778078 -0.3153376 13.48337389 0.78433326 20.5 2.625 C21.55590332 2.89715332 22.61180664 3.16930664 23.69970703 3.44970703 C55.07755279 11.71957827 84.13954306 26.06688519 109 47 C109.52271484 47.43393066 110.04542969 47.86786133 110.58398438 48.31494141 C123.95846589 59.42857129 135.56756243 71.0776681 146 85 C146.93873392 86.23182278 147.87753651 87.46359323 148.81640625 88.6953125 C157.82474155 100.62683075 167.09280413 113.74779634 172 128 C171.67 128.99 171.34 129.98 171 131 C170.59273682 130.21520264 170.59273682 130.21520264 170.17724609 129.41455078 C159.50495459 108.8874391 148.00779129 89.6949577 132.32421875 72.546875 C130.76903051 70.84270234 129.22995225 69.12369354 127.70703125 67.390625 C123.09608693 62.15271923 118.3991023 57.41585115 113 53 C112.48195801 52.56961426 111.96391602 52.13922852 111.43017578 51.69580078 C88.07389169 32.32733492 61.32067264 16.22956075 31.6328125 8.95703125 C28.91007778 8.23975167 26.3348622 7.44580765 23.68359375 6.5234375 C18.84082526 4.87675208 13.94827637 3.8115454 8.9375 2.8125 C7.6390918 2.54663086 7.6390918 2.54663086 6.31445312 2.27539062 C4.2106375 1.84532887 2.10545788 1.42194832 0 1 C0 0.67 0 0.34 0 0 Z " fill="#027A65" transform="translate(803,288)"/>
<path d="M0 0 C4.94787346 1.90530368 9.37509139 4.46251489 13.91601562 7.16601562 C16.89197231 8.90654813 19.56829934 10.44373929 23 11 C23 11.66 23 12.32 23 13 C23.70253906 13.12632812 24.40507813 13.25265625 25.12890625 13.3828125 C28.14796422 14.03180728 31.00137874 14.91974239 33.9375 15.875 C40.8837436 18.05265531 47.86092636 19.58716983 55 21 C55 21.33 55 21.66 55 22 C48.97742297 22.2190028 43.8126858 21.55374895 38 20 C37.17910889 19.78214844 36.35821777 19.56429687 35.51245117 19.33984375 C23.95096993 16.07574028 14.15461997 10.34663748 4 4 C3.67 35.02 3.34 66.04 3 98 C5.64 98.33 8.28 98.66 11 99 C12.34212868 99.31922158 13.67910003 99.66446095 15 100.0625 C19.08327473 101.1562343 22.78561567 101.15051373 27 101 C27.33 101.99 27.66 102.98 28 104 C21.71668135 104.28069808 16.57037466 103.3486249 10.5625 101.5625 C9.74845703 101.33240234 8.93441406 101.10230469 8.09570312 100.86523438 C2.15620426 99.15620426 2.15620426 99.15620426 1 98 C0.87463144 94.95670813 0.81387557 91.93502627 0.79467773 88.89038086 C0.78477814 87.93438492 0.77487854 86.97838898 0.76467896 85.99342346 C0.73296148 82.81725586 0.70826619 79.64107327 0.68359375 76.46484375 C0.66303306 74.26908467 0.64203684 72.07332964 0.62062073 69.87757874 C0.56530861 64.08583842 0.51593978 58.29406186 0.46777344 52.5022583 C0.41762497 46.59717566 0.36190425 40.69214596 0.30664062 34.78710938 C0.19894733 23.19145142 0.09752733 11.5957476 0 0 Z " fill="#056C58" transform="translate(704,629)"/>
<path d="M0 0 C1.50308447 2.79791504 2.46981383 5.41908936 3.2265625 8.5 C9.79027272 34.3556 20.3023876 58.29941516 36 80 C37.02287109 81.43085937 37.02287109 81.43085937 38.06640625 82.890625 C49.35908885 98.32463128 62.39334313 111.58772395 76 125 C76.33 115.76 76.66 106.52 77 97 C77.33 97 77.66 97 78 97 C78 107.56 78 118.12 78 129 C72.56930479 124.92697859 67.76403803 121.09039867 63.0625 116.3125 C62.45768799 115.70237061 61.85287598 115.09224121 61.22973633 114.46362305 C56.12373744 109.25007212 51.50894923 103.73558645 47 98 C45.46040073 96.14411633 43.91871679 94.28996015 42.375 92.4375 C38.31023168 87.45306908 34.55172169 82.36108935 31 77 C30.63825684 76.46375 30.27651367 75.9275 29.90380859 75.375 C16.5825234 55.50671614 -1.69580876 24.87186186 0 0 Z " fill="#057660" transform="translate(547,558)"/>
<path d="M0 0 C-2.67747531 1.78498354 -5.0879287 2.81626805 -8.08959961 3.90161133 C-23.17136743 9.43153065 -35.02124746 20.42124099 -42 35 C-48.72219271 53.21220262 -48.87287742 70.81111667 -40.7578125 88.609375 C-32.6586322 104.23179389 -20.36769448 114.29282939 -3.8828125 120.09765625 C-1.59811343 120.79342155 0.67913107 121.43849945 3 122 C3 122.33 3 122.66 3 123 C-3.85373091 122.56484248 -8.93370133 121.18685623 -15 118 C-16.2065625 117.38318359 -16.2065625 117.38318359 -17.4375 116.75390625 C-31.85521481 108.80163543 -42.00999308 94.77052042 -47.25 79.3125 C-47.91189333 76.38913779 -48.18042566 73.97702345 -48 71 C-48.66 70.67 -49.32 70.34 -50 70 C-49.36462874 47.82773397 -46.16386738 30.51424023 -30 14 C-21.93118196 6.96893457 -11.05998956 -0.29891864 0 0 Z " fill="#06745C" transform="translate(754,450)"/>
<path d="M0 0 C5.92973961 0.5462644 10.75201068 2.31111457 16.1875 4.6875 C17.44433594 5.22987305 17.44433594 5.22987305 18.7265625 5.78320312 C36.32586271 13.44391547 51.45058329 23.25294188 65 37 C65.93392578 37.86431641 65.93392578 37.86431641 66.88671875 38.74609375 C78.10152431 49.27973975 89.20350115 64.98484706 93 80 C89.8076061 77.31526507 88.26502305 73.84532913 86.4375 70.1875 C80.36411003 58.40120141 72.52457119 47.24743972 63 38 C62.23042969 37.24460937 61.46085938 36.48921875 60.66796875 35.7109375 C45.14802919 21.09530938 27.31290276 11.32763515 7.328125 4.2265625 C4.76188729 3.28078945 2.39941745 2.29665488 0 1 C0 0.67 0 0.34 0 0 Z " fill="#047962" transform="translate(806,374)"/>
<path d="M0 0 C16.31392275 4.03227751 30.40633067 13.19143965 39.73046875 27.3125 C44.18419381 35.12381488 47.90302095 42.16723324 47.73046875 51.3125 C45.87455742 48.52863301 45.31246597 47.0201262 44.54296875 43.875 C40.23002271 29.13373668 29.81846873 17.05761391 16.73046875 9.3125 C6.36604445 3.81083642 -3.73203215 1.8623183 -15.39453125 1.625 C-16.54179688 1.59083984 -17.6890625 1.55667969 -18.87109375 1.52148438 C-21.67047499 1.43983576 -24.46957574 1.37041908 -27.26953125 1.3125 C-20.36910155 -3.28778646 -7.91909371 -1.48565912 0 0 Z " fill="#047E66" transform="translate(782.26953125,448.6875)"/>
<path d="M0 0 C0.66 0.33 1.32 0.66 2 1 C-1.50062532 4.59908041 -5.03535581 8.07424587 -8.875 11.3125 C-18.37646906 19.58974132 -25.44996671 29.3325715 -32 40 C-32.36512695 40.59409668 -32.73025391 41.18819336 -33.10644531 41.80029297 C-40.72644911 54.46863722 -45.81396076 68.75924566 -48.47705078 83.28955078 C-48.64962402 83.85399902 -48.82219727 84.41844727 -49 85 C-49.99 85.495 -49.99 85.495 -51 86 C-50.46235825 79.25565853 -49.11991003 73.33148436 -46.9375 66.9375 C-46.62586914 66.02137939 -46.31423828 65.10525879 -45.99316406 64.16137695 C-36.83528797 38.01586851 -20.51796989 18.15331024 0 0 Z " fill="#047860" transform="translate(680,398)"/>
<path d="M0 0 C0 4.10820988 -2.13813839 5.78488694 -4.8125 8.625 C-5.31023926 9.15843018 -5.80797852 9.69186035 -6.32080078 10.24145508 C-20.99784911 25.66969092 -40.42894191 38.63195464 -60.8125 45.125 C-61.47612549 45.33737305 -62.13975098 45.54974609 -62.82348633 45.76855469 C-66.31342409 46.79088253 -68.54522333 47.04456576 -72 46 C-71.18535278 45.73932739 -71.18535278 45.73932739 -70.35424805 45.47338867 C-41.92820253 36.21110615 -20.58756735 21.45610535 0 0 Z " fill="#058169" transform="translate(877,601)"/>
<path d="M0 0 C-2.67747531 1.78498354 -5.0879287 2.81626805 -8.08959961 3.90161133 C-23.17136743 9.43153065 -35.02124746 20.42124099 -42 35 C-44.30145279 41.2352459 -46.00625535 47.4275106 -47 54 C-47.66 54 -48.32 54 -49 54 C-48.66818855 40.63704816 -43.23069774 30.25018853 -35 20 C-34.236875 18.948125 -33.47375 17.89625 -32.6875 16.8125 C-24.5979077 8.34664759 -12.1362888 -0.32800781 0 0 Z " fill="#067A62" transform="translate(754,450)"/>
<path d="M0 0 C1.98 0.99 1.98 0.99 4 2 C3.34 2 2.68 2 2 2 C2 33.68 2 65.36 2 98 C1.67 98 1.34 98 1 98 C0.67 65.66 0.34 33.32 0 0 Z " fill="#05B296" transform="translate(704,629)"/>
<path d="M0 0 C0.33 0 0.66 0 1 0 C1 10.56 1 21.12 1 32 C-7 26 -7 26 -9 22 C-5.33759908 23.56960039 -4.06096354 24.93903646 -1 28 C-0.67 18.76 -0.34 9.52 0 0 Z " fill="#066D56" transform="translate(624,655)"/>
<path d="M0 0 C7.26 0 14.52 0 22 0 C21.01 1.485 21.01 1.485 20 3 C13.18117508 3.97561649 6.52618795 3.00805783 0 1 C0 0.67 0 0.34 0 0 Z " fill="#06AE91" transform="translate(747,650)"/>
<path d="M0 0 C3.45201639 1.47721422 5.64961936 3.43794001 8.25 6.125 C8.95640625 6.84945312 9.6628125 7.57390625 10.390625 8.3203125 C11.18726563 9.15175781 11.18726563 9.15175781 12 10 C11.34 10.66 10.68 11.32 10 12 C8.32737283 10.38113585 6.66204463 8.7547271 5 7.125 C4.071875 6.22007812 3.14375 5.31515625 2.1875 4.3828125 C0 2 0 2 0 0 Z " fill="#068169" transform="translate(604,666)"/>
<path d="M0 0 C-1.14659582 3.43978746 -2.00519614 4.00738405 -4.875 6.0625 C-5.57367187 6.56910156 -6.27234375 7.07570313 -6.9921875 7.59765625 C-8.64667885 8.75322511 -10.32084891 9.88056594 -12 11 C-12 10.01 -12 9.02 -12 8 C-9.8828125 5.95703125 -9.8828125 5.95703125 -7.125 3.8125 C-5.76761719 2.73935547 -5.76761719 2.73935547 -4.3828125 1.64453125 C-2 0 -2 0 0 0 Z " fill="#05856D" transform="translate(735,457)"/>
<path d="M0 0 C0.66 0.33 1.32 0.66 2 1 C-3.94 6.445 -3.94 6.445 -10 12 C-10 9 -10 9 -8.57421875 7.24609375 C-7.95160156 6.64925781 -7.32898438 6.05242187 -6.6875 5.4375 C-6.07261719 4.83808594 -5.45773437 4.23867188 -4.82421875 3.62109375 C-3 2 -3 2 0 0 Z " fill="#02B195" transform="translate(732,460)"/>
<path d="M0 0 C0.66 0.66 1.32 1.32 2 2 C-2.95 4.475 -2.95 4.475 -8 7 C-8.33 6.34 -8.66 5.68 -9 5 C-6.03 3.35 -3.06 1.7 0 0 Z " fill="#037F68" transform="translate(880,706)"/>
<path d="M0 0 C1.98 0.99 1.98 0.99 4 2 C3.34 2 2.68 2 2 2 C2 6.29 2 10.58 2 15 C1.67 15 1.34 15 1 15 C0.67 10.05 0.34 5.1 0 0 Z " fill="#09AE91" transform="translate(704,629)"/>
<path d="M0 0 C1.32 0.33 2.64 0.66 4 1 C3.01 1.33 2.02 1.66 1 2 C0.67 1.34 0.34 0.68 0 0 Z " fill="#059780" transform="translate(720,733)"/>
<path d="M0 0 C0.66 1.32 1.32 2.64 2 4 C1.34 3.67 0.68 3.34 0 3 C0 2.01 0 1.02 0 0 Z " fill="#059981" transform="translate(562,609)"/>
<path d="" fill="#089D82" transform="translate(0,0)"/>
<path d="" fill="#089E84" transform="translate(0,0)"/>
<path d="" fill="#069D84" transform="translate(0,0)"/>
<path d="M0 0 C2 1 2 1 2 1 Z " fill="#019881" transform="translate(809,735)"/>
<path d="M0 0 C2 1 2 1 2 1 Z " fill="#06221D" transform="translate(1090,699)"/>
<path d="" fill="#05977E" transform="translate(0,0)"/>
<path d="M0 0 C2 1 2 1 2 1 Z " fill="#019B82" transform="translate(569,624)"/>
<path d="" fill="#069A82" transform="translate(0,0)"/>
<path d="" fill="#05967E" transform="translate(0,0)"/>
<path d="" fill="#059D84" transform="translate(0,0)"/>
<path d="" fill="#059C84" transform="translate(0,0)"/>
<path d="" fill="#099C84" transform="translate(0,0)"/>
<path d="M0 0 C2 1 2 1 2 1 Z " fill="#0B4C40" transform="translate(1090,531)"/>
<path d="" fill="#05A68C" transform="translate(0,0)"/>
<path d="M0 0 C2 1 2 1 2 1 Z " fill="#073830" transform="translate(1090,387)"/>
<path d="M0 0 C2 1 2 1 2 1 Z " fill="#019E86" transform="translate(713,288)"/>
<path d="" fill="#424242" transform="translate(0,0)"/>
<path d="" fill="#212624" transform="translate(0,0)"/>
<path d="" fill="#29282B" transform="translate(0,0)"/>
<path d="" fill="#2D2D2E" transform="translate(0,0)"/>
<path d="" fill="#252524" transform="translate(0,0)"/>
<path d="" fill="#252828" transform="translate(0,0)"/>
<path d="" fill="#2E2F2E" transform="translate(0,0)"/>
<path d="" fill="#202524" transform="translate(0,0)"/>
<path d="" fill="#282929" transform="translate(0,0)"/>
<path d="" fill="#2C2D2C" transform="translate(0,0)"/>
<path d="" fill="#29292A" transform="translate(0,0)"/>
<path d="" fill="#232625" transform="translate(0,0)"/>
<path d="" fill="#2E2E2E" transform="translate(0,0)"/>
<path d="" fill="#3B3B3C" transform="translate(0,0)"/>
<path d="" fill="#262926" transform="translate(0,0)"/>
<path d="" fill="#414242" transform="translate(0,0)"/>
<path d="" fill="#1F2323" transform="translate(0,0)"/>
<path d="" fill="#262828" transform="translate(0,0)"/>
<path d="" fill="#393A39" transform="translate(0,0)"/>
<path d="" fill="#2C2D2C" transform="translate(0,0)"/>
<path d="" fill="#1F2222" transform="translate(0,0)"/>
<path d="" fill="#414040" transform="translate(0,0)"/>
<path d="" fill="#1F2322" transform="translate(0,0)"/>
<path d="" fill="#3F4040" transform="translate(0,0)"/>
<path d="" fill="#3F3F40" transform="translate(0,0)"/>
<path d="" fill="#1D2221" transform="translate(0,0)"/>
<path d="" fill="#1F201F" transform="translate(0,0)"/>
<path d="" fill="#1F2423" transform="translate(0,0)"/>
<path d="" fill="#3F403F" transform="translate(0,0)"/>
<path d="" fill="#1C2020" transform="translate(0,0)"/>
<path d="" fill="#3D3E3E" transform="translate(0,0)"/>
<path d="" fill="#242525" transform="translate(0,0)"/>
<path d="" fill="#242524" transform="translate(0,0)"/>
<path d="" fill="#3D403E" transform="translate(0,0)"/>
<path d="" fill="#1B201E" transform="translate(0,0)"/>
<path d="" fill="#1C1F1E" transform="translate(0,0)"/>
<path d="" fill="#3D3D3D" transform="translate(0,0)"/>
<path d="" fill="#424342" transform="translate(0,0)"/>
<path d="" fill="#191D1C" transform="translate(0,0)"/>
<path d="" fill="#202322" transform="translate(0,0)"/>
<path d="" fill="#1D1F1D" transform="translate(0,0)"/>
<path d="" fill="#232323" transform="translate(0,0)"/>
<path d="" fill="#1B1D1B" transform="translate(0,0)"/>
<path d="" fill="#3C3C3D" transform="translate(0,0)"/>
<path d="" fill="#181D1B" transform="translate(0,0)"/>
<path d="" fill="#1F2121" transform="translate(0,0)"/>
<path d="" fill="#1F2121" transform="translate(0,0)"/>
<path d="" fill="#262726" transform="translate(0,0)"/>
<path d="" fill="#363637" transform="translate(0,0)"/>
<path d="" fill="#1D211E" transform="translate(0,0)"/>
<path d="" fill="#3B3C3C" transform="translate(0,0)"/>
<path d="" fill="#151B19" transform="translate(0,0)"/>
<path d="" fill="#1E201F" transform="translate(0,0)"/>
<path d="" fill="#1E211E" transform="translate(0,0)"/>
<path d="" fill="#141A18" transform="translate(0,0)"/>
<path d="" fill="#1D1E1F" transform="translate(0,0)"/>
<path d="" fill="#1D1F1D" transform="translate(0,0)"/>
<path d="" fill="#363434" transform="translate(0,0)"/>
<path d="" fill="#151D1B" transform="translate(0,0)"/>
<path d="" fill="#313231" transform="translate(0,0)"/>
<path d="" fill="#3C3C3B" transform="translate(0,0)"/>
<path d="" fill="#121918" transform="translate(0,0)"/>
<path d="" fill="#1C1E1F" transform="translate(0,0)"/>
<path d="" fill="#161B18" transform="translate(0,0)"/>
<path d="" fill="#141F18" transform="translate(0,0)"/>
<path d="" fill="#232322" transform="translate(0,0)"/>
<path d="" fill="#353436" transform="translate(0,0)"/>
<path d="" fill="#3B3A3B" transform="translate(0,0)"/>
<path d="" fill="#3A3B3A" transform="translate(0,0)"/>
<path d="" fill="#121816" transform="translate(0,0)"/>
<path d="" fill="#121615" transform="translate(0,0)"/>
<path d="" fill="#191C1D" transform="translate(0,0)"/>
<path d="" fill="#3A3A3A" transform="translate(0,0)"/>
<path d="" fill="#1A1B1C" transform="translate(0,0)"/>
<path d="" fill="#414040" transform="translate(0,0)"/>
<path d="" fill="#191D19" transform="translate(0,0)"/>
<path d="" fill="#393A3B" transform="translate(0,0)"/>
<path d="" fill="#121716" transform="translate(0,0)"/>
<path d="" fill="#1B1A1A" transform="translate(0,0)"/>
<path d="" fill="#3A3A3A" transform="translate(0,0)"/>
<path d="" fill="#0F1714" transform="translate(0,0)"/>
<path d="" fill="#0E1514" transform="translate(0,0)"/>
<path d="" fill="#171918" transform="translate(0,0)"/>
<path d="" fill="#121616" transform="translate(0,0)"/>
<path d="" fill="#1D1E1F" transform="translate(0,0)"/>
<path d="" fill="#383839" transform="translate(0,0)"/>
<path d="" fill="#121714" transform="translate(0,0)"/>
<path d="" fill="#393939" transform="translate(0,0)"/>
<path d="" fill="#0C1412" transform="translate(0,0)"/>
<path d="" fill="#121717" transform="translate(0,0)"/>
<path d="" fill="#131715" transform="translate(0,0)"/>
<path d="" fill="#333031" transform="translate(0,0)"/>
<path d="" fill="#1D1D1E" transform="translate(0,0)"/>
<path d="" fill="#393939" transform="translate(0,0)"/>
<path d="" fill="#091411" transform="translate(0,0)"/>
<path d="" fill="#0A1512" transform="translate(0,0)"/>
<path d="" fill="#091411" transform="translate(0,0)"/>
<path d="" fill="#071311" transform="translate(0,0)"/>
<path d="" fill="#313132" transform="translate(0,0)"/>
<path d="" fill="#061511" transform="translate(0,0)"/>
<path d="" fill="#0F1112" transform="translate(0,0)"/>
<path d="" fill="#071713" transform="translate(0,0)"/>
<path d="" fill="#313032" transform="translate(0,0)"/>
<path d="" fill="#393939" transform="translate(0,0)"/>
<path d="" fill="#041813" transform="translate(0,0)"/>
<path d="" fill="#383939" transform="translate(0,0)"/>
<path d="" fill="#393938" transform="translate(0,0)"/>
<path d="" fill="#181A18" transform="translate(0,0)"/>
<path d="" fill="#393A39" transform="translate(0,0)"/>
<path d="" fill="#041A14" transform="translate(0,0)"/>
<path d="" fill="#0D1210" transform="translate(0,0)"/>
<path d="" fill="#091510" transform="translate(0,0)"/>
<path d="" fill="#3A393A" transform="translate(0,0)"/>
<path d="" fill="#041C17" transform="translate(0,0)"/>
<path d="" fill="#091513" transform="translate(0,0)"/>
<path d="" fill="#3A3A39" transform="translate(0,0)"/>
<path d="" fill="#031F19" transform="translate(0,0)"/>
<path d="" fill="#393B38" transform="translate(0,0)"/>
<path d="" fill="#02221C" transform="translate(0,0)"/>
<path d="" fill="#161516" transform="translate(0,0)"/>
<path d="" fill="#04231C" transform="translate(0,0)"/>
<path d="" fill="#151818" transform="translate(0,0)"/>
<path d="" fill="#393939" transform="translate(0,0)"/>
<path d="" fill="#393A3A" transform="translate(0,0)"/>
<path d="" fill="#04251E" transform="translate(0,0)"/>
<path d="" fill="#39393A" transform="translate(0,0)"/>
<path d="" fill="#393A39" transform="translate(0,0)"/>
<path d="" fill="#393A3A" transform="translate(0,0)"/>
<path d="" fill="#0B5342" transform="translate(0,0)"/>
<path d="" fill="#151816" transform="translate(0,0)"/>
<path d="" fill="#3A3B3B" transform="translate(0,0)"/>
<path d="" fill="#043228" transform="translate(0,0)"/>
<path d="" fill="#393A3B" transform="translate(0,0)"/>
<path d="" fill="#313231" transform="translate(0,0)"/>
<path d="" fill="#3B3A3A" transform="translate(0,0)"/>
<path d="" fill="#04372B" transform="translate(0,0)"/>
<path d="" fill="#062019" transform="translate(0,0)"/>
<path d="" fill="#393B3A" transform="translate(0,0)"/>
<path d="" fill="#033C31" transform="translate(0,0)"/>
<path d="" fill="#07211C" transform="translate(0,0)"/>
<path d="" fill="#39393A" transform="translate(0,0)"/>
<path d="" fill="#081613" transform="translate(0,0)"/>
<path d="" fill="#3A3B3A" transform="translate(0,0)"/>
<path d="" fill="#034236" transform="translate(0,0)"/>
<path d="" fill="#08241E" transform="translate(0,0)"/>
<path d="" fill="#2C2E2B" transform="translate(0,0)"/>
<path d="" fill="#3A3B3A" transform="translate(0,0)"/>
<path d="" fill="#04483A" transform="translate(0,0)"/>
<path d="" fill="#07987F" transform="translate(0,0)"/>
<path d="" fill="#059B81" transform="translate(0,0)"/>
<path d="" fill="#069680" transform="translate(0,0)"/>
<path d="" fill="#04957D" transform="translate(0,0)"/>
<path d="" fill="#069880" transform="translate(0,0)"/>
<path d="" fill="#3A3C3B" transform="translate(0,0)"/>
<path d="" fill="#064E40" transform="translate(0,0)"/>
<path d="" fill="#04372C" transform="translate(0,0)"/>
<path d="" fill="#03967D" transform="translate(0,0)"/>
<path d="" fill="#3A3B3B" transform="translate(0,0)"/>
<path d="" fill="#055446" transform="translate(0,0)"/>
<path d="" fill="#393A3A" transform="translate(0,0)"/>
<path d="" fill="#06987D" transform="translate(0,0)"/>
<path d="" fill="#393A3A" transform="translate(0,0)"/>
<path d="" fill="#2C2E2C" transform="translate(0,0)"/>
<path d="" fill="#333533" transform="translate(0,0)"/>
<path d="" fill="#3B3B3B" transform="translate(0,0)"/>
<path d="" fill="#065C4A" transform="translate(0,0)"/>
<path d="" fill="#061D19" transform="translate(0,0)"/>
<path d="" fill="#082E25" transform="translate(0,0)"/>
<path d="" fill="#06957C" transform="translate(0,0)"/>
<path d="" fill="#3A3C3A" transform="translate(0,0)"/>
<path d="" fill="#056250" transform="translate(0,0)"/>
<path d="" fill="#3A3B39" transform="translate(0,0)"/>
<path d="" fill="#111816" transform="translate(0,0)"/>
<path d="" fill="#3A393A" transform="translate(0,0)"/>
<path d="" fill="#393B3A" transform="translate(0,0)"/>
<path d="" fill="#066856" transform="translate(0,0)"/>
<path d="" fill="#393A3A" transform="translate(0,0)"/>
<path d="" fill="#434344" transform="translate(0,0)"/>
<path d="" fill="#07705D" transform="translate(0,0)"/>
<path d="" fill="#393B39" transform="translate(0,0)"/>
<path d="" fill="#064F40" transform="translate(0,0)"/>
<path d="" fill="#091F1B" transform="translate(0,0)"/>
<path d="" fill="#101917" transform="translate(0,0)"/>
<path d="" fill="#3A3B3A" transform="translate(0,0)"/>
<path d="" fill="#087762" transform="translate(0,0)"/>
<path d="" fill="#093D32" transform="translate(0,0)"/>
<path d="" fill="#077E6A" transform="translate(0,0)"/>
<path d="" fill="#062722" transform="translate(0,0)"/>
<path d="" fill="#075849" transform="translate(0,0)"/>
<path d="" fill="#09826C" transform="translate(0,0)"/>
<path d="" fill="#0A4135" transform="translate(0,0)"/>
<path d="" fill="#393A3A" transform="translate(0,0)"/>
<path d="" fill="#078670" transform="translate(0,0)"/>
<path d="" fill="#062B25" transform="translate(0,0)"/>
<path d="" fill="#085D4E" transform="translate(0,0)"/>
<path d="" fill="#383A39" transform="translate(0,0)"/>
<path d="" fill="#393A39" transform="translate(0,0)"/>
<path d="" fill="#078E76" transform="translate(0,0)"/>
<path d="" fill="#0A483C" transform="translate(0,0)"/>
<path d="" fill="#38393A" transform="translate(0,0)"/>
<path d="" fill="#383A39" transform="translate(0,0)"/>
<path d="" fill="#08987F" transform="translate(0,0)"/>
<path d="" fill="#393A3A" transform="translate(0,0)"/>
<path d="" fill="#072F28" transform="translate(0,0)"/>
<path d="" fill="#059880" transform="translate(0,0)"/>
<path d="" fill="#079880" transform="translate(0,0)"/>
<path d="" fill="#08AE92" transform="translate(0,0)"/>
<path d="" fill="#393939" transform="translate(0,0)"/>
<path d="" fill="#393A3A" transform="translate(0,0)"/>
<path d="" fill="#434342" transform="translate(0,0)"/>
<path d="" fill="#04987F" transform="translate(0,0)"/>
<path d="" fill="#07947E" transform="translate(0,0)"/>
<path d="" fill="#393A39" transform="translate(0,0)"/>
<path d="" fill="#444343" transform="translate(0,0)"/>
<path d="" fill="#38393A" transform="translate(0,0)"/>
<path d="" fill="#393B39" transform="translate(0,0)"/>
<path d="" fill="#0E5B4C" transform="translate(0,0)"/>
<path d="" fill="#09372E" transform="translate(0,0)"/>
<path d="" fill="#0E1D19" transform="translate(0,0)"/>
<path d="" fill="#393A39" transform="translate(0,0)"/>
<path d="" fill="#05967F" transform="translate(0,0)"/>
<path d="" fill="#30312F" transform="translate(0,0)"/>
<path d="" fill="#093A30" transform="translate(0,0)"/>
<path d="" fill="#0A7F6B" transform="translate(0,0)"/>
<path d="" fill="#069A82" transform="translate(0,0)"/>
<path d="" fill="#099A82" transform="translate(0,0)"/>
<path d="" fill="#383939" transform="translate(0,0)"/>
<path d="" fill="#383939" transform="translate(0,0)"/>
<path d="" fill="#0A836F" transform="translate(0,0)"/>
<path d="" fill="#393A39" transform="translate(0,0)"/>
<path d="" fill="#0A8873" transform="translate(0,0)"/>
<path d="" fill="#039C81" transform="translate(0,0)"/>
<path d="" fill="#393B3A" transform="translate(0,0)"/>
<path d="" fill="#0E6757" transform="translate(0,0)"/>
<path d="" fill="#393A39" transform="translate(0,0)"/>
<path d="" fill="#393A38" transform="translate(0,0)"/>
<path d="" fill="#05AB90" transform="translate(0,0)"/>
<path d="" fill="#0A8E77" transform="translate(0,0)"/>
<path d="" fill="#383B39" transform="translate(0,0)"/>
<path d="" fill="#079F85" transform="translate(0,0)"/>
<path d="" fill="#08AA8F" transform="translate(0,0)"/>
<path d="" fill="#2A2E2E" transform="translate(0,0)"/>
<path d="" fill="#07AB8E" transform="translate(0,0)"/>
<path d="" fill="#03A68F" transform="translate(0,0)"/>
<path d="" fill="#09AE92" transform="translate(0,0)"/>
<path d="" fill="#393A3A" transform="translate(0,0)"/>
<path d="" fill="#0F6D5C" transform="translate(0,0)"/>
<path d="" fill="#383A3A" transform="translate(0,0)"/>
<path d="" fill="#393A39" transform="translate(0,0)"/>
<path d="" fill="#0A937B" transform="translate(0,0)"/>
<path d="" fill="#039B82" transform="translate(0,0)"/>
<path d="" fill="#0E211C" transform="translate(0,0)"/>
<path d="" fill="#3A3B3A" transform="translate(0,0)"/>
<path d="" fill="#0A473B" transform="translate(0,0)"/>
<path d="" fill="#083B31" transform="translate(0,0)"/>
<path d="" fill="#0BAB90" transform="translate(0,0)"/>
<path d="" fill="#3A3B39" transform="translate(0,0)"/>
<path d="" fill="#09AB8F" transform="translate(0,0)"/>
<path d="" fill="#0B483C" transform="translate(0,0)"/>
<path d="" fill="#0CA68A" transform="translate(0,0)"/>
<path d="" fill="#3A3B3A" transform="translate(0,0)"/>
<path d="" fill="#0E7461" transform="translate(0,0)"/>
<path d="" fill="#0B9C82" transform="translate(0,0)"/>
<path d="" fill="#09A988" transform="translate(0,0)"/>
<path d="" fill="#2C2E2E" transform="translate(0,0)"/>
<path d="" fill="#3A3A3A" transform="translate(0,0)"/>
<path d="" fill="#393A3A" transform="translate(0,0)"/>
<path d="" fill="#099B81" transform="translate(0,0)"/>
<path d="" fill="#393B38" transform="translate(0,0)"/>
<path d="" fill="#069F86" transform="translate(0,0)"/>
<path d="" fill="#06A086" transform="translate(0,0)"/>
<path d="" fill="#3B3A3A" transform="translate(0,0)"/>
<path d="" fill="#06AD8F" transform="translate(0,0)"/>
<path d="" fill="#079A83" transform="translate(0,0)"/>
<path d="" fill="#03AE94" transform="translate(0,0)"/>
<path d="" fill="#099E84" transform="translate(0,0)"/>
<path d="" fill="#089C83" transform="translate(0,0)"/>
<path d="" fill="#08A98E" transform="translate(0,0)"/>
<path d="" fill="#08AA90" transform="translate(0,0)"/>
<path d="" fill="#06AD8F" transform="translate(0,0)"/>
<path d="" fill="#05AC8C" transform="translate(0,0)"/>
<path d="" fill="#049D87" transform="translate(0,0)"/>
<path d="" fill="#0E725E" transform="translate(0,0)"/>
<path d="" fill="#2A2C2B" transform="translate(0,0)"/>
<path d="" fill="#3A3C3B" transform="translate(0,0)"/>
<path d="" fill="#0B9B83" transform="translate(0,0)"/>
<path d="" fill="#0E7661" transform="translate(0,0)"/>
<path d="" fill="#079E84" transform="translate(0,0)"/>
<path d="" fill="#0A3027" transform="translate(0,0)"/>
<path d="" fill="#0E7764" transform="translate(0,0)"/>
<path d="" fill="#3A3C3B" transform="translate(0,0)"/>
<path d="" fill="#07A085" transform="translate(0,0)"/>
<path d="" fill="#079E83" transform="translate(0,0)"/>
<path d="" fill="#06A98F" transform="translate(0,0)"/>
<path d="" fill="#3A3B3B" transform="translate(0,0)"/>
<path d="" fill="#089C83" transform="translate(0,0)"/>
<path d="" fill="#09AC91" transform="translate(0,0)"/>
<path d="" fill="#05A087" transform="translate(0,0)"/>
<path d="" fill="#3A3B3A" transform="translate(0,0)"/>
<path d="" fill="#089982" transform="translate(0,0)"/>
<path d="" fill="#3A3B39" transform="translate(0,0)"/>
<path d="" fill="#0B4C40" transform="translate(0,0)"/>
<path d="" fill="#03AC8E" transform="translate(0,0)"/>
<path d="" fill="#069F85" transform="translate(0,0)"/>
<path d="" fill="#07A084" transform="translate(0,0)"/>
<path d="" fill="#069D86" transform="translate(0,0)"/>
<path d="" fill="#0D735F" transform="translate(0,0)"/>
<path d="" fill="#3A3A3A" transform="translate(0,0)"/>
<path d="" fill="#454545" transform="translate(0,0)"/>
<path d="" fill="#0B4C3F" transform="translate(0,0)"/>
<path d="" fill="#059A82" transform="translate(0,0)"/>
<path d="" fill="#3A3A39" transform="translate(0,0)"/>
<path d="" fill="#06A087" transform="translate(0,0)"/>
<path d="" fill="#0E241F" transform="translate(0,0)"/>
<path d="" fill="#07A78E" transform="translate(0,0)"/>
<path d="" fill="#2D312D" transform="translate(0,0)"/>
<path d="" fill="#3A3A3A" transform="translate(0,0)"/>
<path d="" fill="#079A80" transform="translate(0,0)"/>
<path d="" fill="#08AA8B" transform="translate(0,0)"/>
<path d="" fill="#383A39" transform="translate(0,0)"/>
<path d="" fill="#08977F" transform="translate(0,0)"/>
<path d="" fill="#099881" transform="translate(0,0)"/>
<path d="" fill="#049C81" transform="translate(0,0)"/>
<path d="" fill="#0E241F" transform="translate(0,0)"/>
<path d="" fill="#3A3B3A" transform="translate(0,0)"/>
<path d="" fill="#04AA91" transform="translate(0,0)"/>
<path d="" fill="#069C85" transform="translate(0,0)"/>
<path d="" fill="#08AD90" transform="translate(0,0)"/>
<path d="" fill="#039A82" transform="translate(0,0)"/>
<path d="" fill="#464644" transform="translate(0,0)"/>
<path d="" fill="#019C83" transform="translate(0,0)"/>
<path d="" fill="#08AD91" transform="translate(0,0)"/>
<path d="" fill="#05A68C" transform="translate(0,0)"/>
<path d="" fill="#04A48A" transform="translate(0,0)"/>
<path d="" fill="#059E86" transform="translate(0,0)"/>
<path d="" fill="#05A38A" transform="translate(0,0)"/>
<path d="" fill="#04A58E" transform="translate(0,0)"/>
<path d="" fill="#01A68D" transform="translate(0,0)"/>
<path d="" fill="#049981" transform="translate(0,0)"/>
<path d="" fill="#02A790" transform="translate(0,0)"/>
<path d="" fill="#2E3031" transform="translate(0,0)"/>
<path d="" fill="#09453B" transform="translate(0,0)"/>
<path d="" fill="#039C84" transform="translate(0,0)"/>
<path d="" fill="#00AD90" transform="translate(0,0)"/>
<path d="" fill="#303030" transform="translate(0,0)"/>
<path d="" fill="#38393A" transform="translate(0,0)"/>
<path d="" fill="#383939" transform="translate(0,0)"/>
<path d="" fill="#094439" transform="translate(0,0)"/>
<path d="" fill="#088B74" transform="translate(0,0)"/>
<path d="" fill="#07A48D" transform="translate(0,0)"/>
<path d="" fill="#0E211D" transform="translate(0,0)"/>
<path d="" fill="#292A29" transform="translate(0,0)"/>
<path d="" fill="#373938" transform="translate(0,0)"/>
<path d="" fill="#0A6150" transform="translate(0,0)"/>
<path d="" fill="#282A29" transform="translate(0,0)"/>
<path d="" fill="#393A39" transform="translate(0,0)"/>
<path d="" fill="#0A5E4F" transform="translate(0,0)"/>
<path d="" fill="#049A84" transform="translate(0,0)"/>
<path d="" fill="#0E201D" transform="translate(0,0)"/>
<path d="" fill="#343736" transform="translate(0,0)"/>
<path d="" fill="#383A39" transform="translate(0,0)"/>
<path d="" fill="#083C34" transform="translate(0,0)"/>
<path d="" fill="#069781" transform="translate(0,0)"/>
<path d="" fill="#02A28E" transform="translate(0,0)"/>
<path d="" fill="#009984" transform="translate(0,0)"/>
<path d="" fill="#383839" transform="translate(0,0)"/>
<path d="" fill="#019A82" transform="translate(0,0)"/>
<path d="" fill="#0C5D4E" transform="translate(0,0)"/>
<path d="" fill="#059B85" transform="translate(0,0)"/>
<path d="" fill="#06927A" transform="translate(0,0)"/>
<path d="" fill="#03A78F" transform="translate(0,0)"/>
<path d="" fill="#019780" transform="translate(0,0)"/>
<path d="" fill="#393939" transform="translate(0,0)"/>
<path d="" fill="#434444" transform="translate(0,0)"/>
<path d="" fill="#04A890" transform="translate(0,0)"/>
<path d="" fill="#04A68F" transform="translate(0,0)"/>
<path d="" fill="#07A68A" transform="translate(0,0)"/>
<path d="" fill="#049883" transform="translate(0,0)"/>
<path d="" fill="#095546" transform="translate(0,0)"/>
<path d="" fill="#383939" transform="translate(0,0)"/>
<path d="" fill="#049A86" transform="translate(0,0)"/>
<path d="" fill="#0B5548" transform="translate(0,0)"/>
<path d="" fill="#05A890" transform="translate(0,0)"/>
<path d="" fill="#0E1C19" transform="translate(0,0)"/>
<path d="" fill="#0A5245" transform="translate(0,0)"/>
<path d="" fill="#02A68C" transform="translate(0,0)"/>
<path d="" fill="#009983" transform="translate(0,0)"/>
<path d="" fill="#393A39" transform="translate(0,0)"/>
<path d="" fill="#0B4F43" transform="translate(0,0)"/>
<path d="" fill="#06332B" transform="translate(0,0)"/>
<path d="" fill="#066B5A" transform="translate(0,0)"/>
<path d="" fill="#383939" transform="translate(0,0)"/>
<path d="" fill="#04907A" transform="translate(0,0)"/>
<path d="" fill="#053029" transform="translate(0,0)"/>
<path d="" fill="#066656" transform="translate(0,0)"/>
<path d="" fill="#373938" transform="translate(0,0)"/>
<path d="" fill="#009986" transform="translate(0,0)"/>
<path d="" fill="#38383A" transform="translate(0,0)"/>
<path d="" fill="#393939" transform="translate(0,0)"/>
<path d="" fill="#444544" transform="translate(0,0)"/>
<path d="" fill="#048A75" transform="translate(0,0)"/>
<path d="" fill="#0A483D" transform="translate(0,0)"/>
<path d="" fill="#072E27" transform="translate(0,0)"/>
<path d="" fill="#049C83" transform="translate(0,0)"/>
<path d="" fill="#078772" transform="translate(0,0)"/>
<path d="" fill="#029986" transform="translate(0,0)"/>
<path d="" fill="#393939" transform="translate(0,0)"/>
<path d="" fill="#058470" transform="translate(0,0)"/>
<path d="" fill="#0A463B" transform="translate(0,0)"/>
<path d="" fill="#065E4E" transform="translate(0,0)"/>
<path d="" fill="#009D85" transform="translate(0,0)"/>
<path d="" fill="#39393A" transform="translate(0,0)"/>
<path d="" fill="#047766" transform="translate(0,0)"/>
<path d="" fill="#019A83" transform="translate(0,0)"/>
<path d="" fill="#2C2D2C" transform="translate(0,0)"/>
<path d="" fill="#03947C" transform="translate(0,0)"/>
<path d="" fill="#02957E" transform="translate(0,0)"/>
<path d="" fill="#101817" transform="translate(0,0)"/>
<path d="" fill="#39393A" transform="translate(0,0)"/>
<path d="" fill="#04725F" transform="translate(0,0)"/>
<path d="" fill="#063830" transform="translate(0,0)"/>
<path d="" fill="#064F42" transform="translate(0,0)"/>
<path d="" fill="#121816" transform="translate(0,0)"/>
<path d="" fill="#393A39" transform="translate(0,0)"/>
<path d="" fill="#036B59" transform="translate(0,0)"/>
<path d="" fill="#039680" transform="translate(0,0)"/>
<path d="" fill="#38393A" transform="translate(0,0)"/>
<path d="" fill="#393A39" transform="translate(0,0)"/>
<path d="" fill="#019782" transform="translate(0,0)"/>
<path d="" fill="#048D7A" transform="translate(0,0)"/>
<path d="" fill="#046454" transform="translate(0,0)"/>
<path d="" fill="#02957F" transform="translate(0,0)"/>
<path d="" fill="#3A3B3A" transform="translate(0,0)"/>
<path d="" fill="#045E4F" transform="translate(0,0)"/>
<path d="" fill="#05211C" transform="translate(0,0)"/>
<path d="" fill="#039A82" transform="translate(0,0)"/>
<path d="" fill="#029881" transform="translate(0,0)"/>
<path d="" fill="#029481" transform="translate(0,0)"/>
<path d="" fill="#029A83" transform="translate(0,0)"/>
<path d="" fill="#049B88" transform="translate(0,0)"/>
<path d="" fill="#3A3B3A" transform="translate(0,0)"/>
<path d="" fill="#03594A" transform="translate(0,0)"/>
<path d="" fill="#019D84" transform="translate(0,0)"/>
<path d="" fill="#0B1813" transform="translate(0,0)"/>
<path d="" fill="#059782" transform="translate(0,0)"/>
<path d="" fill="#025144" transform="translate(0,0)"/>
<path d="" fill="#072E26" transform="translate(0,0)"/>
<path d="" fill="#071D19" transform="translate(0,0)"/>
<path d="" fill="#3A3A3A" transform="translate(0,0)"/>
<path d="" fill="#044B40" transform="translate(0,0)"/>
<path d="" fill="#3A393B" transform="translate(0,0)"/>
<path d="" fill="#03453B" transform="translate(0,0)"/>
<path d="" fill="#061A16" transform="translate(0,0)"/>
<path d="" fill="#3A3A3A" transform="translate(0,0)"/>
<path d="" fill="#034036" transform="translate(0,0)"/>
<path d="" fill="#393B3A" transform="translate(0,0)"/>
<path d="" fill="#3A3B3A" transform="translate(0,0)"/>
<path d="" fill="#023A31" transform="translate(0,0)"/>
<path d="" fill="#081616" transform="translate(0,0)"/>
<path d="" fill="#02372D" transform="translate(0,0)"/>
<path d="" fill="#081614" transform="translate(0,0)"/>
<path d="" fill="#3B3B3B" transform="translate(0,0)"/>
<path d="" fill="#033029" transform="translate(0,0)"/>
<path d="" fill="#3A3A3B" transform="translate(0,0)"/>
<path d="" fill="#131716" transform="translate(0,0)"/>
<path d="" fill="#3B3A3B" transform="translate(0,0)"/>
<path d="" fill="#091513" transform="translate(0,0)"/>
<path d="" fill="#3B3B3B" transform="translate(0,0)"/>
<path d="" fill="#022D26" transform="translate(0,0)"/>
<path d="" fill="#3A3A3C" transform="translate(0,0)"/>
<path d="" fill="#3B3B3B" transform="translate(0,0)"/>
<path d="" fill="#022921" transform="translate(0,0)"/>
<path d="" fill="#081916" transform="translate(0,0)"/>
<path d="" fill="#393A3B" transform="translate(0,0)"/>
<path d="" fill="#0A1513" transform="translate(0,0)"/>
<path d="" fill="#3C3C3C" transform="translate(0,0)"/>
<path d="" fill="#3B3D3C" transform="translate(0,0)"/>
<path d="" fill="#01201C" transform="translate(0,0)"/>
<path d="" fill="#171918" transform="translate(0,0)"/>
<path d="" fill="#3C3C3C" transform="translate(0,0)"/>
<path d="" fill="#021E18" transform="translate(0,0)"/>
<path d="" fill="#3C3C3C" transform="translate(0,0)"/>
<path d="" fill="#021A16" transform="translate(0,0)"/>
<path d="" fill="#3D3D3E" transform="translate(0,0)"/>
<path d="" fill="#011813" transform="translate(0,0)"/>
<path d="" fill="#3D3D3D" transform="translate(0,0)"/>
<path d="" fill="#011511" transform="translate(0,0)"/>
<path d="" fill="#0A1211" transform="translate(0,0)"/>
<path d="" fill="#3D3D3E" transform="translate(0,0)"/>
<path d="" fill="#021210" transform="translate(0,0)"/>
<path d="" fill="#141615" transform="translate(0,0)"/>
<path d="" fill="#343535" transform="translate(0,0)"/>
<path d="" fill="#3E3D3F" transform="translate(0,0)"/>
<path d="" fill="#0F1010" transform="translate(0,0)"/>
<path d="" fill="#353433" transform="translate(0,0)"/>
<path d="" fill="#3E3D3E" transform="translate(0,0)"/>
<path d="" fill="#0D1111" transform="translate(0,0)"/>
<path d="" fill="#151715" transform="translate(0,0)"/>
<path d="" fill="#050E0D" transform="translate(0,0)"/>
<path d="" fill="#3F3F3F" transform="translate(0,0)"/>
<path d="" fill="#403E3E" transform="translate(0,0)"/>
<path d="" fill="#030D0C" transform="translate(0,0)"/>
<path d="" fill="#0E110F" transform="translate(0,0)"/>
<path d="" fill="#121313" transform="translate(0,0)"/>
<path d="" fill="#404040" transform="translate(0,0)"/>
<path d="" fill="#050C0B" transform="translate(0,0)"/>
<path d="" fill="#414041" transform="translate(0,0)"/>
<path d="" fill="#060D0B" transform="translate(0,0)"/>
<path d="" fill="#121213" transform="translate(0,0)"/>
<path d="" fill="#414141" transform="translate(0,0)"/>
<path d="" fill="#060C0B" transform="translate(0,0)"/>
<path d="" fill="#424241" transform="translate(0,0)"/>
<path d="" fill="#060C0C" transform="translate(0,0)"/>
<path d="" fill="#111211" transform="translate(0,0)"/>
<path d="" fill="#0B0F0D" transform="translate(0,0)"/>
<path d="" fill="#090C0B" transform="translate(0,0)"/>
<path d="" fill="#232222" transform="translate(0,0)"/>
<path d="" fill="#080C0C" transform="translate(0,0)"/>
<path d="" fill="#121314" transform="translate(0,0)"/>
<path d="" fill="#424242" transform="translate(0,0)"/>
<path d="" fill="#090E0B" transform="translate(0,0)"/>
<path d="" fill="#424241" transform="translate(0,0)"/>
<path d="" fill="#222322" transform="translate(0,0)"/>
<path d="" fill="#424343" transform="translate(0,0)"/>
<path d="" fill="#090C0C" transform="translate(0,0)"/>
<path d="" fill="#161616" transform="translate(0,0)"/>
<path d="" fill="#232323" transform="translate(0,0)"/>
<path d="" fill="#3B3D3D" transform="translate(0,0)"/>
<path d="" fill="#424244" transform="translate(0,0)"/>
<path d="" fill="#434343" transform="translate(0,0)"/>
<path d="" fill="#0A0D0D" transform="translate(0,0)"/>
<path d="" fill="#090E0D" transform="translate(0,0)"/>
<path d="" fill="#151516" transform="translate(0,0)"/>
<path d="" fill="#181717" transform="translate(0,0)"/>
<path d="" fill="#444444" transform="translate(0,0)"/>
<path d="" fill="#0A0E0C" transform="translate(0,0)"/>
<path d="" fill="#171719" transform="translate(0,0)"/>
<path d="" fill="#1E1F1E" transform="translate(0,0)"/>
<path d="" fill="#141714" transform="translate(0,0)"/>
<path d="" fill="#0B0E0E" transform="translate(0,0)"/>
<path d="" fill="#161816" transform="translate(0,0)"/>
<path d="" fill="#464545" transform="translate(0,0)"/>
<path d="" fill="#0B0F0E" transform="translate(0,0)"/>
<path d="" fill="#191919" transform="translate(0,0)"/>
<path d="" fill="#403F41" transform="translate(0,0)"/>
<path d="" fill="#0B100F" transform="translate(0,0)"/>
<path d="" fill="#181819" transform="translate(0,0)"/>
<path d="" fill="#454547" transform="translate(0,0)"/>
<path d="" fill="#101312" transform="translate(0,0)"/>
</svg>
